<svg width="130" height="309" viewBox="0 0 130 309" fill="none" xmlns="http://www.w3.org/2000/svg">
<circle cx="65" cy="65" r="65" fill="white"/>
<path d="M47.375 44.6875V85.3125H72.375V82.1875H50.5V47.8125H66.125V57.1875H75.5V60.3125H78.625V55L78.1563 54.5313L68.7813 45.1562L68.3125 44.6875H47.375V44.6875ZM69.25 50L73.3125 54.0625H69.25V50ZM53.625 60.3125V63.4375H72.375V60.3125H53.625ZM80.1875 63.4375V66.5625C77.5312 67.0313 75.5 69.2188 75.5 72.0312C75.5 75.1562 77.8438 77.5 80.9688 77.5H82.5312C83.7813 77.5 84.875 78.5937 84.875 79.8438C84.875 81.0938 83.7813 82.1875 82.5312 82.1875H77.0625V85.3125H80.1875V88.4375H83.3125V85.3125C85.9688 84.8437 88 82.6562 88 79.8438C88 76.7188 85.6562 74.375 82.5312 74.375H80.9688C79.7187 74.375 78.625 73.2813 78.625 72.0312C78.625 70.7812 79.7187 69.6875 80.9688 69.6875H86.4375V66.5625H83.3125V63.4375H80.1875ZM53.625 68.125V71.25H64.5625V68.125H53.625ZM67.6875 68.125V71.25H72.375V68.125H67.6875ZM53.625 74.375V77.5H64.5625V74.375H53.625ZM67.6875 74.375V77.5H72.375V74.375H67.6875Z" fill="url(#paint0_linear_0_1)"/>
<line x1="63.9961" y1="145.999" x2="63.9961" y2="308.002" stroke="black" stroke-dasharray="10 10"/>
<defs>
<linearGradient id="paint0_linear_0_1" x1="67.6875" y1="44.6875" x2="67.6875" y2="88.4375" gradientUnits="userSpaceOnUse">
<stop stop-color="#F2BF5E"/>
<stop offset="1" stop-color="#1DBF73"/>
</linearGradient>
</defs>
</svg>
