<svg width="35" height="36" viewBox="0 0 35 36" fill="none" xmlns="http://www.w3.org/2000/svg">
<path d="M25.316 0.0521779C25.5676 0.135741 25.7758 0.315849 25.8947 0.552888C26.0136 0.789928 26.0335 1.06449 25.95 1.31618L24.95 4.31618C24.8661 4.56813 24.6857 4.77648 24.4483 4.89538C24.2108 5.01427 23.9359 5.03399 23.684 4.95018C23.432 4.86637 23.2237 4.6859 23.1048 4.44848C22.9859 4.21106 22.9661 3.93613 23.05 3.68418L24.05 0.684178C24.0915 0.559512 24.1573 0.444261 24.2434 0.345015C24.3295 0.245769 24.4344 0.164474 24.552 0.105778C24.6695 0.0470828 24.7975 0.0121376 24.9286 0.00294042C25.0597 -0.00625678 25.1913 0.0104746 25.316 0.0521779V0.0521779ZM32.71 3.70818C32.8028 3.6152 32.8764 3.50485 32.9266 3.38342C32.9768 3.26199 33.0026 3.13187 33.0025 3.00047C33.0024 2.86908 32.9764 2.73899 32.9261 2.61763C32.8757 2.49627 32.8019 2.38602 32.709 2.29318C32.616 2.20033 32.5056 2.12671 32.3842 2.07651C32.2628 2.02632 32.1326 2.00053 32.0012 2.00062C31.8699 2.00071 31.7398 2.02669 31.6184 2.07705C31.497 2.12742 31.3868 2.2012 31.294 2.29418L27.294 6.29418C27.1118 6.48278 27.011 6.73538 27.0133 6.99758C27.0156 7.25978 27.1207 7.51059 27.3061 7.696C27.4915 7.8814 27.7424 7.98657 28.0046 7.98885C28.2667 7.99113 28.5194 7.89034 28.708 7.70818L32.708 3.70818H32.71ZM12.214 4.29218C12.493 3.70464 12.911 3.194 13.4319 2.80451C13.9528 2.41502 14.5608 2.15842 15.2033 2.05696C15.8457 1.9555 16.5032 2.01223 17.1188 2.22225C17.7344 2.43226 18.2895 2.78921 18.736 3.26218L31.91 17.2222C32.3496 17.688 32.6709 18.2525 32.847 18.8683C33.023 19.4841 33.0486 20.1332 32.9216 20.7609C32.7946 21.3887 32.5187 21.9768 32.1172 22.4757C31.7156 22.9747 31.2001 23.3699 30.614 23.6282L22.74 27.1002C23.0318 28.1412 23.0789 29.2356 22.8775 30.2978C22.6761 31.36 22.2316 32.3612 21.5789 33.2231C20.9262 34.0849 20.083 34.7841 19.1151 35.2659C18.1473 35.7477 17.0811 35.999 16 36.0002C14.8084 36.0008 13.6364 35.6971 12.5951 35.1178C11.5538 34.5386 10.6778 33.7029 10.05 32.6902L7.64995 33.7482C7.09842 33.991 6.48653 34.0622 5.89399 33.9523C5.30146 33.8424 4.75575 33.5566 4.32795 33.1322L1.88395 30.7122C1.44203 30.2745 1.14709 29.7102 1.03996 29.0975C0.932819 28.4848 1.01878 27.8539 1.28595 27.2922L12.214 4.29218V4.29218ZM11.906 31.8702C12.5697 32.8178 13.5416 33.5059 14.6559 33.8172C15.7702 34.1284 16.958 34.0436 18.0168 33.5772C19.0756 33.1108 19.9399 32.2917 20.4623 31.2594C20.9848 30.2271 21.1331 29.0456 20.882 27.9162L11.906 31.8702V31.8702ZM31 10.0002C30.7347 10.0002 30.4804 10.1055 30.2928 10.2931C30.1053 10.4806 30 10.735 30 11.0002C30 11.2654 30.1053 11.5197 30.2928 11.7073C30.4804 11.8948 30.7347 12.0002 31 12.0002H34C34.2652 12.0002 34.5195 11.8948 34.7071 11.7073C34.8946 11.5197 35 11.2654 35 11.0002C35 10.735 34.8946 10.4806 34.7071 10.2931C34.5195 10.1055 34.2652 10.0002 34 10.0002H31Z" fill="#3A3A3A"/>
</svg>
