<svg width="30" height="30" viewBox="0 0 30 30" fill="none" xmlns="http://www.w3.org/2000/svg">
<path d="M5.52548 25.7238C5.35205 25.7235 5.18059 25.6871 5.02198 25.617C4.86338 25.5468 4.72111 25.4444 4.60423 25.3163C4.48522 25.1893 4.39442 25.0385 4.33776 24.874C4.28111 24.7094 4.25988 24.5347 4.27548 24.3613L4.58173 20.9938L18.7292 6.85132L23.1505 11.2713L9.00673 25.4126L5.63923 25.7188C5.60141 25.7223 5.56345 25.724 5.52548 25.7238ZM24.033 10.3876L19.613 5.96757L22.2642 3.31632C22.3803 3.20009 22.5182 3.1079 22.6699 3.04499C22.8217 2.98209 22.9843 2.94971 23.1486 2.94971C23.3129 2.94971 23.4755 2.98209 23.6273 3.04499C23.779 3.1079 23.9169 3.20009 24.033 3.31632L26.6842 5.96757C26.8004 6.08366 26.8926 6.22152 26.9556 6.37327C27.0185 6.52501 27.0508 6.68767 27.0508 6.85194C27.0508 7.01621 27.0185 7.17887 26.9556 7.33062C26.8926 7.48236 26.8004 7.62022 26.6842 7.73632L24.0342 10.3863L24.033 10.3876Z" fill="#1DBF73"/>
</svg>
