<svg width="35" height="36" viewBox="0 0 35 36" fill="none" xmlns="http://www.w3.org/2000/svg">
<path d="M17.5 3.4165C14.6157 3.4165 11.7961 4.2718 9.3979 5.87424C6.99968 7.47668 5.1305 9.75428 4.02672 12.419C2.92294 15.0838 2.63415 18.016 3.19685 20.8449C3.75955 23.6738 5.14848 26.2723 7.18799 28.3118C9.22751 30.3513 11.826 31.7403 14.6549 32.303C17.4838 32.8657 20.416 32.5769 23.0808 31.4731C25.7455 30.3693 28.0231 28.5001 29.6256 26.1019C31.228 23.7037 32.0833 20.8841 32.0833 17.9998C32.0833 16.0847 31.7061 14.1884 30.9732 12.419C30.2403 10.6497 29.1661 9.04205 27.8119 7.68786C26.4578 6.33368 24.8501 5.25948 23.0808 4.52659C21.3114 3.79371 19.4151 3.4165 17.5 3.4165ZM17.5 29.6665C15.1925 29.6665 12.9369 28.9823 11.0183 27.7003C9.09974 26.4184 7.60439 24.5963 6.72137 22.4645C5.83835 20.3327 5.60731 17.9869 6.05747 15.7238C6.50763 13.4607 7.61877 11.3819 9.25039 9.75026C10.882 8.11865 12.9608 7.0075 15.2239 6.55734C17.487 6.10718 19.8328 6.33822 21.9646 7.22124C24.0964 8.10427 25.9185 9.59961 27.2004 11.5182C28.4824 13.4368 29.1666 15.6924 29.1666 17.9998C29.1666 21.094 27.9375 24.0615 25.7495 26.2494C23.5616 28.4373 20.5942 29.6665 17.5 29.6665Z" fill="black"/>
<path d="M23.3333 16.5418H18.9583V12.1668C18.9583 11.7801 18.8046 11.4091 18.5312 11.1356C18.2577 10.8621 17.8867 10.7085 17.5 10.7085C17.1132 10.7085 16.7423 10.8621 16.4688 11.1356C16.1953 11.4091 16.0416 11.7801 16.0416 12.1668V18.0002C16.0416 18.3869 16.1953 18.7579 16.4688 19.0314C16.7423 19.3049 17.1132 19.4585 17.5 19.4585H23.3333C23.7201 19.4585 24.091 19.3049 24.3645 19.0314C24.638 18.7579 24.7916 18.3869 24.7916 18.0002C24.7916 17.6134 24.638 17.2425 24.3645 16.969C24.091 16.6955 23.7201 16.5418 23.3333 16.5418Z" fill="black"/>
</svg>

