<svg width="40" height="40" viewBox="0 0 40 40" fill="none" xmlns="http://www.w3.org/2000/svg">
<path d="M21.5666 36.6668H18.4166C17.674 36.6668 16.9618 36.3718 16.4367 35.8467C15.9116 35.3216 15.6166 34.6094 15.6166 33.8668V32.0502C15.6076 31.9431 15.5683 31.8409 15.5034 31.7553C15.4385 31.6697 15.3506 31.6044 15.2499 31.5668C15.1479 31.5015 15.0294 31.4668 14.9083 31.4668C14.7871 31.4668 14.6686 31.5015 14.5666 31.5668L13.3333 32.9002C13.0745 33.1607 12.7669 33.3675 12.4279 33.5086C12.0889 33.6496 11.7254 33.7223 11.3583 33.7223C10.9911 33.7223 10.6276 33.6496 10.2886 33.5086C9.94965 33.3675 9.64196 33.1607 9.38325 32.9002L7.09992 30.6668C6.83562 30.4086 6.62571 30.1001 6.48258 29.7595C6.33946 29.4188 6.26601 29.053 6.26659 28.6835C6.26766 27.9277 6.56716 27.2029 7.09992 26.6668L8.33325 25.4335C8.39279 25.3417 8.42448 25.2346 8.42448 25.1252C8.42448 25.0157 8.39279 24.9086 8.33325 24.8168C8.23325 24.5668 8.06658 24.3835 7.83325 24.3835H6.13325C5.38912 24.3791 4.67696 24.0804 4.15233 23.5526C3.62771 23.0249 3.33324 22.311 3.33325 21.5668V18.4168C3.33325 17.6742 3.62825 16.962 4.15335 16.4369C4.67845 15.9118 5.39065 15.6168 6.13325 15.6168H7.94992C8.05695 15.6078 8.15921 15.5685 8.24479 15.5036C8.33036 15.4387 8.39572 15.3508 8.43325 15.2502C8.49859 15.1482 8.53332 15.0296 8.53332 14.9085C8.53332 14.7874 8.49859 14.6688 8.43325 14.5668L7.09992 13.3335C6.83939 13.0748 6.63263 12.7671 6.49153 12.4281C6.35043 12.0892 6.27779 11.7257 6.27779 11.3585C6.27779 10.9913 6.35043 10.6278 6.49153 10.2889C6.63263 9.9499 6.83939 9.6422 7.09992 9.3835L9.33325 7.10016C9.58891 6.83711 9.89462 6.62787 10.2324 6.48476C10.5701 6.34164 10.9331 6.26754 11.2999 6.26683C11.677 6.26517 12.0507 6.33793 12.3996 6.48093C12.7485 6.62392 13.0658 6.83435 13.3333 7.10016L14.5666 8.3335C14.6584 8.39304 14.7655 8.42472 14.8749 8.42472C14.9843 8.42472 15.0914 8.39304 15.1833 8.3335C15.4333 8.2335 15.6166 8.06683 15.6166 7.8335V6.1335C15.621 5.38936 15.9197 4.67721 16.4474 4.15258C16.9752 3.62795 17.6891 3.33348 18.4333 3.3335H21.6666C22.4092 3.3335 23.1214 3.6285 23.6465 4.1536C24.1716 4.6787 24.4666 5.39089 24.4666 6.1335V7.95016C24.4756 8.05719 24.5149 8.15946 24.5798 8.24503C24.6447 8.3306 24.7326 8.39597 24.8333 8.4335C24.9352 8.49883 25.0538 8.53356 25.1749 8.53356C25.296 8.53356 25.4146 8.49883 25.5166 8.4335L26.6666 7.10016C26.9253 6.83964 27.233 6.63287 27.5719 6.49177C27.9109 6.35067 28.2744 6.27803 28.6416 6.27803C29.0087 6.27803 29.3723 6.35067 29.7112 6.49177C30.0502 6.63287 30.3579 6.83964 30.6166 7.10016L32.8999 9.3335C33.1635 9.59226 33.3729 9.90089 33.5159 10.2414C33.659 10.5819 33.7329 10.9475 33.7333 11.3168C33.7413 11.6923 33.6714 12.0654 33.528 12.4125C33.3845 12.7596 33.1707 13.0732 32.8999 13.3335L31.6666 14.5668C31.607 14.6586 31.5754 14.7657 31.5754 14.8752C31.5754 14.9846 31.607 15.0917 31.6666 15.1835C31.7666 15.4335 31.9332 15.6168 32.1666 15.6168H33.9833C34.7069 15.6511 35.3896 15.963 35.8893 16.4875C36.389 17.0121 36.6674 17.709 36.6666 18.4335V21.6668C36.6666 22.4094 36.3716 23.1216 35.8465 23.6467C35.3214 24.1718 34.6092 24.4668 33.8666 24.4668H32.0499C31.9429 24.4759 31.8406 24.5151 31.7551 24.58C31.6695 24.645 31.6041 24.7329 31.5666 24.8335C31.507 24.9253 31.4754 25.0324 31.4754 25.1418C31.4754 25.2513 31.507 25.3583 31.5666 25.4502L32.8499 26.7335C33.1104 26.9922 33.3172 27.2999 33.4583 27.6389C33.5994 27.9778 33.672 28.3413 33.672 28.7085C33.672 29.0757 33.5994 29.4392 33.4583 29.7781C33.3172 30.1171 33.1104 30.4248 32.8499 30.6835L30.6666 32.9002C30.4109 33.1632 30.1052 33.3725 29.7675 33.5156C29.4297 33.6587 29.0667 33.7328 28.6999 33.7335C27.9557 33.7237 27.2444 33.4249 26.7166 32.9002L25.4333 31.6668C25.3414 31.6073 25.2343 31.5756 25.1249 31.5756C25.0155 31.5756 24.9084 31.6073 24.8166 31.6668C24.5666 31.7668 24.3833 31.9335 24.3833 32.1668V33.9835C24.349 34.7072 24.0371 35.3898 23.5126 35.8895C22.988 36.3893 22.2911 36.6676 21.5666 36.6668V36.6668ZM18.9499 33.3335H21.0499V32.0502C21.057 31.2816 21.292 30.5324 21.7252 29.8975C22.1584 29.2626 22.7702 28.7705 23.4833 28.4835C24.1992 28.1705 24.9921 28.0779 25.7609 28.2174C26.5297 28.3569 27.2396 28.7223 27.7999 29.2668L28.6999 30.1668L30.1666 28.7002L29.2666 27.7835C28.7255 27.2316 28.3605 26.5314 28.2181 25.7718C28.0756 25.0121 28.1621 24.2272 28.4666 23.5168C28.7561 22.8069 29.2493 22.1986 29.8841 21.7685C30.5188 21.3385 31.2666 21.1059 32.0333 21.1002H33.3333V18.9502H32.0499C31.2813 18.9431 30.5322 18.708 29.8972 18.2749C29.2623 17.8417 28.7702 17.2299 28.4833 16.5168C28.1703 15.8009 28.0777 15.0079 28.2172 14.2391C28.3567 13.4703 28.722 12.7605 29.2666 12.2002L30.1666 11.3002L28.6999 9.8335L27.7833 10.7335C27.2228 11.2454 26.5277 11.5866 25.7799 11.7168C25.0321 11.8469 24.2626 11.7607 23.5621 11.4683C22.8617 11.1758 22.2593 10.6893 21.8261 10.066C21.3928 9.44274 21.1466 8.70864 21.1166 7.95016V6.66683H18.9499V7.95016C18.9428 8.71874 18.7078 9.46793 18.2746 10.1028C17.8415 10.7378 17.2296 11.2299 16.5166 11.5168C15.8006 11.8298 15.0077 11.9224 14.2389 11.7829C13.4701 11.6434 12.7603 11.2781 12.1999 10.7335L11.2999 9.8335L9.83325 11.3002L10.7333 12.2168C11.2452 12.7773 11.5863 13.4724 11.7165 14.2202C11.8467 14.968 11.7605 15.7375 11.468 16.4379C11.1756 17.1384 10.6891 17.7408 10.0658 18.174C9.4425 18.6073 8.7084 18.8534 7.94992 18.8835H6.66659V20.9835H7.94992C8.7185 20.9906 9.46768 21.2256 10.1026 21.6588C10.7375 22.092 11.2296 22.7038 11.5166 23.4168C11.8295 24.1328 11.9222 24.9257 11.7827 25.6945C11.6431 26.4633 11.2778 27.1732 10.7333 27.7335L9.83325 28.6335L11.2999 30.1002L12.2166 29.2002C12.777 28.6882 13.4721 28.3471 14.2199 28.2169C14.9678 28.0867 15.7372 28.1729 16.4377 28.4654C17.1382 28.7578 17.7405 29.2444 18.1738 29.8676C18.607 30.4909 18.8532 31.225 18.8833 31.9835L18.9499 33.3335Z" fill="#3A3A3A"/>
<path d="M20.0001 25.8332C18.8464 25.8332 17.7185 25.4911 16.7593 24.8501C15.8 24.2091 15.0523 23.2981 14.6108 22.2322C14.1693 21.1663 14.0538 19.9934 14.2788 18.8618C14.5039 17.7303 15.0595 16.6909 15.8753 15.8751C16.6911 15.0592 17.7305 14.5037 18.8621 14.2786C19.9936 14.0535 21.1665 14.169 22.2324 14.6105C23.2983 15.0521 24.2093 15.7997 24.8503 16.759C25.4913 17.7183 25.8334 18.8461 25.8334 19.9998C25.8334 21.5469 25.2188 23.0307 24.1249 24.1246C23.0309 25.2186 21.5472 25.8332 20.0001 25.8332V25.8332ZM20.0001 17.4998C19.5056 17.4998 19.0223 17.6465 18.6112 17.9212C18.2 18.1959 17.8796 18.5863 17.6904 19.0431C17.5012 19.4999 17.4517 20.0026 17.5481 20.4876C17.6446 20.9725 17.8827 21.418 18.2323 21.7676C18.5819 22.1172 19.0274 22.3553 19.5124 22.4518C19.9973 22.5483 20.5 22.4988 20.9568 22.3095C21.4136 22.1203 21.8041 21.7999 22.0788 21.3888C22.3535 20.9776 22.5001 20.4943 22.5001 19.9998C22.5001 19.3368 22.2367 18.7009 21.7679 18.2321C21.299 17.7632 20.6631 17.4998 20.0001 17.4998Z" fill="#3A3A3A"/>
</svg>
