<svg width="40" height="40" viewBox="0 0 40 40" fill="none" xmlns="http://www.w3.org/2000/svg">
<path d="M3.53325 22.5435C4.76992 30.5118 11.7033 36.6602 20.0016 36.6602C29.1666 36.6602 36.6649 29.1618 36.6649 19.9968C36.6649 10.8318 29.1683 3.3335 20.0033 3.3335C14.5066 3.3335 9.66992 6.00183 6.66659 10.0002V3.33516L3.33825 3.3335L3.33325 15.0002H14.9999V11.6668L9.66825 11.6652C11.9999 8.6685 15.8366 6.66683 20.0033 6.66683C27.3333 6.66683 33.3333 12.6668 33.3333 19.9968C33.3333 27.3268 27.3333 33.3285 20.0016 33.3285C13.5383 33.3285 8.11492 28.6718 6.91992 22.5435H3.53325Z" fill="#3A3A3A"/>
<path d="M18.3367 11.665V20.5017L23.6717 27.6634L26.3383 25.6684L21.67 19.5V11.665H18.3367Z" fill="#3A3A3A"/>
</svg>
