<svg width="40" height="28" viewBox="0 0 40 28" fill="none" xmlns="http://www.w3.org/2000/svg">
<path d="M40 18.3332C40 19.3332 38 19.9998 35.6667 20.3332C34.1667 17.4998 31.1667 15.3332 27.6667 13.8332C28 13.3332 28.3333 12.9998 28.6667 12.4998H30C35.1667 12.3332 40 15.4998 40 18.3332ZM11.3333 12.3332H10C4.83333 12.3332 0 15.4998 0 18.3332C0 19.3332 2 19.9998 4.33333 20.3332C5.83333 17.4998 8.83333 15.3332 12.3333 13.8332L11.3333 12.3332ZM20 13.9998C23.6667 13.9998 26.6667 10.9998 26.6667 7.33317C26.6667 3.6665 23.6667 0.666504 20 0.666504C16.3333 0.666504 13.3333 3.6665 13.3333 7.33317C13.3333 10.9998 16.3333 13.9998 20 13.9998ZM20 15.6665C13.1667 15.6665 6.66667 19.9998 6.66667 23.9998C6.66667 27.3332 20 27.3332 20 27.3332C20 27.3332 33.3333 27.3332 33.3333 23.9998C33.3333 19.9998 26.8333 15.6665 20 15.6665ZM29.5 10.6665H30C32.8333 10.6665 35 8.49984 35 5.6665C35 2.83317 32.8333 0.666504 30 0.666504C29.1667 0.666504 28.5 0.833171 27.8333 1.1665C29.1667 2.83317 30 4.99984 30 7.33317C30 8.49984 29.8333 9.6665 29.5 10.6665ZM10 10.6665H10.5C10.1667 9.6665 10 8.49984 10 7.33317C10 4.99984 10.8333 2.83317 12.1667 1.1665C11.5 0.833171 10.8333 0.666504 10 0.666504C7.16667 0.666504 5 2.83317 5 5.6665C5 8.49984 7.16667 10.6665 10 10.6665Z" fill="#3A3A3A"/>
</svg>
