<svg width="34" height="34" viewBox="0 0 34 34" fill="none" xmlns="http://www.w3.org/2000/svg">
    <path d="M17 7C15.2618 7.00221 13.5953 7.6937 12.3662 8.92284C11.1371 10.152 10.4456 11.8184 10.4434 13.5567H13.7767C13.7767 11.7783 15.2234 10.3333 17 10.3333C18.7767 10.3333 20.2234 11.7783 20.2234 13.5567C20.2234 14.5533 19.4217 15.2767 18.1967 16.2667C17.7965 16.5802 17.4121 16.9134 17.045 17.265C15.3817 18.9267 15.3334 20.6917 15.3334 20.8883V22H18.6667L18.665 20.945C18.6667 20.9183 18.72 20.3017 19.4 19.6233C19.65 19.3733 19.965 19.1233 20.2917 18.86C21.59 17.8083 23.555 16.22 23.555 13.5567C23.5537 11.8184 22.8627 10.1517 21.6337 8.92245C20.4048 7.69318 18.7383 7.00177 17 7ZM15.3334 23.6667H18.6667V27H15.3334V23.6667Z" fill="#3A3A3A"/>
    <path d="M16.9999 0.333496C7.80992 0.333496 0.333252 7.81016 0.333252 17.0002C0.333252 26.1902 7.80992 33.6668 16.9999 33.6668C26.1899 33.6668 33.6666 26.1902 33.6666 17.0002C33.6666 7.81016 26.1899 0.333496 16.9999 0.333496ZM16.9999 30.3335C9.64825 30.3335 3.66659 24.3518 3.66659 17.0002C3.66659 9.6485 9.64825 3.66683 16.9999 3.66683C24.3516 3.66683 30.3333 9.6485 30.3333 17.0002C30.3333 24.3518 24.3516 30.3335 16.9999 30.3335Z" fill="#3A3A3A"/>
    </svg>