<svg width="40" height="40" viewBox="0 0 40 40" fill="none" xmlns="http://www.w3.org/2000/svg">
<path d="M28.316 2.05218C28.5676 2.13574 28.7758 2.31585 28.8947 2.55289C29.0136 2.78993 29.0335 3.06449 28.95 3.31618L27.95 6.31618C27.8661 6.56813 27.6857 6.77648 27.4483 6.89538C27.2108 7.01427 26.9359 7.03399 26.684 6.95018C26.432 6.86637 26.2237 6.6859 26.1048 6.44848C25.9859 6.21106 25.9661 5.93613 26.05 5.68418L27.05 2.68418C27.0915 2.55951 27.1573 2.44426 27.2434 2.34501C27.3295 2.24577 27.4344 2.16447 27.552 2.10578C27.6695 2.04708 27.7975 2.01214 27.9286 2.00294C28.0597 1.99374 28.1913 2.01047 28.316 2.05218V2.05218ZM35.71 5.70818C35.8028 5.6152 35.8764 5.50485 35.9266 5.38342C35.9768 5.26199 36.0026 5.13187 36.0025 5.00047C36.0024 4.86908 35.9764 4.73899 35.9261 4.61763C35.8757 4.49627 35.8019 4.38602 35.709 4.29318C35.616 4.20033 35.5056 4.12671 35.3842 4.07651C35.2628 4.02632 35.1326 4.00053 35.0012 4.00062C34.8699 4.00071 34.7398 4.02669 34.6184 4.07705C34.497 4.12742 34.3868 4.2012 34.294 4.29418L30.294 8.29418C30.1118 8.48278 30.011 8.73538 30.0133 8.99758C30.0156 9.25978 30.1207 9.51059 30.3061 9.696C30.4915 9.8814 30.7424 9.98657 31.0046 9.98885C31.2667 9.99113 31.5194 9.89034 31.708 9.70818L35.708 5.70818H35.71ZM15.214 6.29218C15.493 5.70464 15.911 5.194 16.4319 4.80451C16.9528 4.41502 17.5608 4.15842 18.2033 4.05696C18.8457 3.9555 19.5032 4.01223 20.1188 4.22225C20.7344 4.43226 21.2895 4.78921 21.736 5.26218L34.91 19.2222C35.3496 19.688 35.6709 20.2525 35.847 20.8683C36.023 21.4841 36.0486 22.1332 35.9216 22.7609C35.7946 23.3887 35.5187 23.9768 35.1172 24.4757C34.7156 24.9747 34.2001 25.3699 33.614 25.6282L25.74 29.1002C26.0318 30.1412 26.0789 31.2356 25.8775 32.2978C25.6761 33.36 25.2316 34.3612 24.5789 35.2231C23.9262 36.0849 23.083 36.7841 22.1151 37.2659C21.1473 37.7477 20.0811 37.999 19 38.0002C17.8084 38.0008 16.6364 37.6971 15.5951 37.1178C14.5538 36.5386 13.6778 35.7029 13.05 34.6902L10.65 35.7482C10.0984 35.991 9.48653 36.0622 8.89399 35.9523C8.30146 35.8424 7.75575 35.5566 7.32795 35.1322L4.88395 32.7122C4.44203 32.2745 4.14709 31.7102 4.03996 31.0975C3.93282 30.4848 4.01878 29.8539 4.28595 29.2922L15.214 6.29218V6.29218ZM14.906 33.8702C15.5697 34.8178 16.5416 35.5059 17.6559 35.8172C18.7702 36.1284 19.958 36.0436 21.0168 35.5772C22.0756 35.1108 22.9399 34.2917 23.4623 33.2594C23.9848 32.2271 24.1331 31.0456 23.882 29.9162L14.906 33.8702V33.8702ZM34 12.0002C33.7347 12.0002 33.4804 12.1055 33.2928 12.2931C33.1053 12.4806 33 12.735 33 13.0002C33 13.2654 33.1053 13.5197 33.2928 13.7073C33.4804 13.8948 33.7347 14.0002 34 14.0002H37C37.2652 14.0002 37.5195 13.8948 37.7071 13.7073C37.8946 13.5197 38 13.2654 38 13.0002C38 12.735 37.8946 12.4806 37.7071 12.2931C37.5195 12.1055 37.2652 12.0002 37 12.0002H34Z" fill="#3A3A3A"/>
</svg>
