<svg width="40" height="40" viewBox="0 0 40 40" fill="none" xmlns="http://www.w3.org/2000/svg">
<path d="M40 24.3332C40 25.3332 38 25.9998 35.6667 26.3332C34.1667 23.4998 31.1667 21.3332 27.6667 19.8332C28 19.3332 28.3333 18.9998 28.6667 18.4998H30C35.1667 18.3332 40 21.4998 40 24.3332V24.3332ZM11.3333 18.3332H10C4.83333 18.3332 0 21.4998 0 24.3332C0 25.3332 2 25.9998 4.33333 26.3332C5.83333 23.4998 8.83333 21.3332 12.3333 19.8332L11.3333 18.3332V18.3332ZM20 19.9998C23.6667 19.9998 26.6667 16.9998 26.6667 13.3332C26.6667 9.6665 23.6667 6.6665 20 6.6665C16.3333 6.6665 13.3333 9.6665 13.3333 13.3332C13.3333 16.9998 16.3333 19.9998 20 19.9998ZM20 21.6665C13.1667 21.6665 6.66667 25.9998 6.66667 29.9998C6.66667 33.3332 20 33.3332 20 33.3332C20 33.3332 33.3333 33.3332 33.3333 29.9998C33.3333 25.9998 26.8333 21.6665 20 21.6665ZM29.5 16.6665H30C32.8333 16.6665 35 14.4998 35 11.6665C35 8.83317 32.8333 6.6665 30 6.6665C29.1667 6.6665 28.5 6.83317 27.8333 7.1665C29.1667 8.83317 30 10.9998 30 13.3332C30 14.4998 29.8333 15.6665 29.5 16.6665ZM10 16.6665H10.5C10.1667 15.6665 10 14.4998 10 13.3332C10 10.9998 10.8333 8.83317 12.1667 7.1665C11.5 6.83317 10.8333 6.6665 10 6.6665C7.16667 6.6665 5 8.83317 5 11.6665C5 14.4998 7.16667 16.6665 10 16.6665Z" fill="#3A3A3A"/>
</svg>
