<svg width="600" height="600" viewBox="0 0 600 600" fill="none" xmlns="http://www.w3.org/2000/svg">
    <path d="M71.0039 137.472C71.0039 138.206 70.7864 138.922 70.379 139.532C69.9715 140.142 69.3924 140.617 68.7149 140.898C68.0373 141.179 67.2918 141.252 66.5725 141.109C65.8532 140.966 65.1925 140.613 64.6739 140.094C64.1554 139.576 63.8022 138.915 63.6591 138.196C63.5161 137.476 63.5895 136.731 63.8701 136.053C64.1508 135.376 64.6261 134.797 65.2358 134.389C65.8456 133.982 66.5625 133.764 67.2959 133.764C67.7833 133.763 68.2662 133.857 68.7168 134.043C69.1673 134.229 69.5767 134.502 69.9214 134.847C70.266 135.191 70.5391 135.601 70.7249 136.051C70.9106 136.502 71.0055 136.985 71.0039 137.472V137.472Z" fill="#E6E6E6"/>
    <path d="M40.6799 231.828C41.4138 231.826 42.1319 232.041 42.7433 232.447C43.3546 232.853 43.8317 233.431 44.1142 234.109C44.3967 234.786 44.4719 235.532 44.3301 236.252C44.1884 236.972 43.8362 237.634 43.3181 238.154C42.8 238.673 42.1394 239.028 41.4198 239.172C40.7002 239.316 39.954 239.243 39.2757 238.963C38.5975 238.683 38.0177 238.207 37.6097 237.597C37.2017 236.987 36.9839 236.27 36.9839 235.536C36.9839 234.555 37.3729 233.613 38.0657 232.918C38.7585 232.223 39.6986 231.831 40.6799 231.828M40.6799 230.628C39.7097 230.63 38.762 230.92 37.9565 231.461C37.1509 232.002 36.5237 232.769 36.1541 233.666C35.7845 234.563 35.689 235.549 35.8797 236.501C36.0704 237.452 36.5388 238.325 37.2257 239.011C37.9126 239.696 38.7871 240.162 39.7388 240.35C40.6906 240.539 41.6768 240.441 42.5729 240.069C43.469 239.697 44.2348 239.068 44.7736 238.261C45.3124 237.455 45.5999 236.506 45.5999 235.536C45.5999 234.234 45.0828 232.986 44.1624 232.065C43.242 231.145 41.9936 230.628 40.6919 230.628H40.6799Z" fill="#F5F5F5"/>
    <path d="M90.324 112.284L84.66 120.936L78.996 112.284L84.66 103.632L90.324 112.284Z" fill="#F5F5F5"/>
    <path d="M49.1159 110.976L43.8359 114C43.6359 114.118 43.4893 114.309 43.4266 114.533C43.364 114.756 43.3903 114.995 43.4999 115.2C43.6219 115.396 43.8135 115.538 44.0362 115.598C44.2588 115.658 44.496 115.632 44.6999 115.524L49.9799 112.476C50.1779 112.356 50.322 112.164 50.3823 111.941C50.4427 111.718 50.4146 111.479 50.3039 111.276C50.1823 111.083 49.9911 110.944 49.77 110.888C49.5488 110.833 49.3146 110.864 49.1159 110.976ZM55.9799 108.948C56.1359 108.948 56.289 108.906 56.4239 108.828L61.7039 105.78C61.9039 105.662 62.0506 105.471 62.1132 105.248C62.1758 105.024 62.1496 104.785 62.0399 104.58C61.9198 104.382 61.7291 104.238 61.5063 104.175C61.2834 104.113 61.0453 104.137 60.8399 104.244L55.5599 107.292C55.3876 107.391 55.253 107.545 55.1771 107.729C55.1011 107.912 55.0882 108.116 55.1403 108.308C55.1924 108.5 55.3065 108.669 55.4649 108.789C55.6234 108.909 55.8171 108.974 56.0159 108.972L55.9799 108.948ZM61.7039 114L56.3999 110.976C56.2975 110.917 56.1844 110.879 56.0672 110.863C55.9499 110.848 55.8308 110.856 55.7166 110.886C55.6024 110.917 55.4953 110.97 55.4015 111.042C55.3077 111.114 55.229 111.204 55.1699 111.306C55.1108 111.409 55.0725 111.522 55.0571 111.639C55.0417 111.756 55.0495 111.875 55.0802 111.989C55.1108 112.104 55.1637 112.211 55.2357 112.305C55.3077 112.398 55.3975 112.477 55.4999 112.536L60.7799 115.584C60.9838 115.692 61.221 115.718 61.4437 115.658C61.6663 115.598 61.8579 115.456 61.9799 115.26C62.0445 115.159 62.0887 115.047 62.1098 114.929C62.1309 114.811 62.1285 114.69 62.1029 114.573C62.0773 114.456 62.0288 114.345 61.9604 114.247C61.8919 114.149 61.8048 114.065 61.7039 114V114ZM50.0159 107.244L44.7359 104.196C44.5306 104.089 44.2924 104.065 44.0696 104.127C43.8468 104.19 43.656 104.334 43.5359 104.532C43.4232 104.736 43.3952 104.976 43.4581 105.201C43.521 105.425 43.6696 105.616 43.8719 105.732L49.1519 108.78C49.2856 108.861 49.4396 108.903 49.5959 108.9C49.7534 108.901 49.9083 108.86 50.0452 108.782C50.1821 108.704 50.2961 108.592 50.3759 108.456C50.477 108.249 50.496 108.012 50.4292 107.791C50.3625 107.571 50.2148 107.384 50.0159 107.268V107.244ZM52.7999 112.704C52.5622 112.707 52.3351 112.803 52.167 112.971C51.9988 113.139 51.903 113.366 51.8999 113.604V119.712C51.8999 119.951 51.9947 120.18 52.1635 120.348C52.3323 120.517 52.5612 120.612 52.7999 120.612C53.0386 120.612 53.2675 120.517 53.4363 120.348C53.6051 120.18 53.6999 119.951 53.6999 119.712V113.604C53.6999 113.365 53.6051 113.136 53.4363 112.968C53.2675 112.799 53.0386 112.704 52.7999 112.704V112.704ZM52.7999 99.2041C52.5622 99.2072 52.3351 99.303 52.167 99.4711C51.9988 99.6393 51.903 99.8664 51.8999 100.104V106.2C51.8999 106.439 51.9947 106.668 52.1635 106.836C52.3323 107.005 52.5612 107.1 52.7999 107.1C53.0386 107.1 53.2675 107.005 53.4363 106.836C53.6051 106.668 53.6999 106.439 53.6999 106.2V100.104C53.6999 99.8654 53.6051 99.6365 53.4363 99.4677C53.2675 99.2989 53.0386 99.2041 52.7999 99.2041V99.2041Z" fill="#F5F5F5"/>
    <path d="M506.544 92.076C506.546 93.1838 506.877 94.2661 507.494 95.1861C508.111 96.1061 508.988 96.8225 510.012 97.2448C511.036 97.6671 512.162 97.7764 513.249 97.5588C514.335 97.3412 515.332 96.8066 516.115 96.0223C516.897 95.2381 517.43 94.2396 517.645 93.1528C517.86 92.0661 517.749 90.9399 517.324 89.9166C516.9 88.8933 516.181 88.0188 515.26 87.4036C514.339 86.7883 513.256 86.46 512.148 86.46C511.411 86.46 510.681 86.6053 510.001 86.8877C509.32 87.1701 508.702 87.5839 508.181 88.1056C507.661 88.6272 507.248 89.2464 506.967 89.9277C506.686 90.609 506.542 91.339 506.544 92.076V92.076Z" fill="#E0E0E0"/>
    <path d="M519.12 124.956C519.854 124.956 520.571 125.174 521.181 125.582C521.791 125.99 522.266 126.569 522.547 127.248C522.827 127.926 522.9 128.672 522.756 129.392C522.612 130.111 522.257 130.772 521.738 131.29C521.218 131.808 520.556 132.16 519.836 132.302C519.116 132.444 518.37 132.369 517.693 132.086C517.015 131.804 516.437 131.327 516.031 130.715C515.625 130.104 515.41 129.386 515.412 128.652C515.415 127.671 515.807 126.73 516.502 126.038C517.197 125.345 518.139 124.956 519.12 124.956M519.12 123.756C518.149 123.756 517.199 124.044 516.392 124.584C515.585 125.124 514.955 125.891 514.584 126.788C514.213 127.686 514.117 128.673 514.307 129.626C514.497 130.578 514.966 131.453 515.654 132.139C516.341 132.825 517.217 133.291 518.17 133.479C519.123 133.667 520.11 133.568 521.006 133.195C521.903 132.821 522.669 132.191 523.207 131.382C523.744 130.573 524.03 129.623 524.028 128.652C524.025 127.352 523.506 126.107 522.586 125.189C521.666 124.271 520.42 123.756 519.12 123.756V123.756Z" fill="#F5F5F5"/>
    <path d="M551.208 224.868L556.872 233.52L562.536 224.868L556.872 216.216L551.208 224.868Z" fill="#F5F5F5"/>
    <path d="M546.456 108.588C546.349 108.794 546.325 109.032 546.387 109.255C546.449 109.477 546.594 109.668 546.792 109.788L552.072 112.836C552.206 112.916 552.36 112.958 552.516 112.956C552.674 112.954 552.83 112.912 552.966 112.832C553.103 112.752 553.217 112.637 553.296 112.5C553.41 112.298 553.439 112.058 553.379 111.834C553.318 111.61 553.172 111.418 552.972 111.3L547.692 108.252C547.589 108.192 547.475 108.154 547.357 108.138C547.239 108.123 547.119 108.131 547.004 108.162C546.889 108.193 546.781 108.247 546.687 108.32C546.593 108.393 546.514 108.484 546.456 108.588V108.588ZM541.656 105.792C541.763 105.587 541.787 105.349 541.725 105.126C541.662 104.903 541.518 104.712 541.32 104.592L536.04 101.544C535.833 101.425 535.587 101.393 535.357 101.454C535.126 101.516 534.929 101.667 534.81 101.874C534.691 102.081 534.658 102.327 534.72 102.558C534.782 102.788 534.933 102.985 535.14 103.104L540.42 106.152C540.559 106.232 540.716 106.273 540.876 106.272C541.028 106.26 541.175 106.21 541.303 106.126C541.431 106.042 541.536 105.927 541.608 105.792H541.656ZM534.816 112.536C534.932 112.739 535.123 112.887 535.347 112.95C535.572 113.013 535.812 112.985 536.016 112.872L541.296 109.824C541.494 109.704 541.638 109.513 541.701 109.291C541.763 109.068 541.739 108.83 541.632 108.624C541.512 108.426 541.32 108.282 541.097 108.222C540.873 108.161 540.635 108.19 540.432 108.3L535.152 111.348C534.944 111.456 534.788 111.641 534.716 111.863C534.644 112.086 534.663 112.327 534.768 112.536H534.816ZM546.504 105.792C546.626 105.988 546.818 106.13 547.04 106.19C547.263 106.25 547.5 106.224 547.704 106.116L552.984 103.068C553.191 102.949 553.342 102.752 553.404 102.522C553.466 102.291 553.433 102.045 553.314 101.838C553.195 101.631 552.998 101.48 552.767 101.418C552.537 101.357 552.291 101.389 552.084 101.508L546.804 104.556C546.595 104.675 546.441 104.871 546.376 105.103C546.31 105.334 546.339 105.582 546.456 105.792H546.504ZM543.18 110.892V116.988C543.18 117.227 543.275 117.456 543.444 117.625C543.612 117.793 543.841 117.888 544.08 117.888C544.319 117.888 544.548 117.793 544.716 117.625C544.885 117.456 544.98 117.227 544.98 116.988V110.892C544.98 110.653 544.885 110.425 544.716 110.256C544.548 110.087 544.319 109.992 544.08 109.992C543.841 109.992 543.612 110.087 543.444 110.256C543.275 110.425 543.18 110.653 543.18 110.892V110.892ZM543.18 97.3922V103.488C543.18 103.727 543.275 103.956 543.444 104.125C543.612 104.293 543.841 104.388 544.08 104.388C544.319 104.388 544.548 104.293 544.716 104.125C544.885 103.956 544.98 103.727 544.98 103.488V97.3922C544.98 97.1535 544.885 96.9246 544.716 96.7558C544.548 96.587 544.319 96.4922 544.08 96.4922C543.841 96.4922 543.612 96.587 543.444 96.7558C543.275 96.9246 543.18 97.1535 543.18 97.3922V97.3922Z" fill="#F5F5F5"/>
    <path d="M63.6 255.312L58.32 258.36C58.1243 258.482 57.982 258.674 57.9219 258.896C57.8618 259.119 57.8883 259.356 57.996 259.56C58.0758 259.696 58.1898 259.808 58.3267 259.886C58.4636 259.964 58.6185 260.005 58.776 260.004C58.9324 260.007 59.0863 259.965 59.22 259.884L64.5 256.836C64.7023 256.72 64.851 256.529 64.9138 256.305C64.9767 256.08 64.9487 255.84 64.836 255.636C64.7764 255.533 64.6971 255.443 64.6027 255.371C64.5082 255.299 64.4004 255.247 64.2855 255.217C64.1706 255.187 64.0508 255.179 63.9332 255.196C63.8156 255.212 63.7023 255.252 63.6 255.312V255.312ZM70.476 253.296C70.6311 253.29 70.7829 253.249 70.92 253.176L76.2 250.128C76.3978 250.008 76.5425 249.817 76.6049 249.594C76.6673 249.372 76.6427 249.133 76.536 248.928C76.416 248.73 76.2244 248.586 76.0009 248.526C75.7774 248.465 75.5393 248.493 75.336 248.604L70.056 251.652C69.8837 251.751 69.749 251.905 69.6731 252.088C69.5972 252.272 69.5843 252.476 69.6364 252.668C69.6885 252.86 69.8026 253.029 69.961 253.149C70.1194 253.269 70.3132 253.334 70.512 253.332L70.476 253.296ZM76.2 258.36L70.92 255.312C70.7131 255.193 70.4673 255.16 70.2367 255.222C70.006 255.284 69.8093 255.435 69.69 255.642C69.5707 255.849 69.5384 256.095 69.6003 256.325C69.6621 256.556 69.8131 256.753 70.02 256.872L75.3 259.92C75.5039 260.028 75.7411 260.054 75.9637 259.994C76.1864 259.934 76.378 259.792 76.5 259.596C76.6242 259.396 76.666 259.155 76.6168 258.925C76.5676 258.694 76.4311 258.492 76.236 258.36H76.2ZM64.5 251.616L59.22 248.568C59.0174 248.454 58.7782 248.425 58.5539 248.485C58.3295 248.546 58.1378 248.692 58.02 248.892C57.9123 249.096 57.8858 249.333 57.9459 249.556C58.006 249.778 58.1483 249.97 58.344 250.092L63.6 253.2C63.7407 253.275 63.8968 253.316 64.056 253.32C64.2144 253.318 64.3697 253.275 64.5064 253.195C64.6432 253.115 64.7568 253.001 64.836 252.864C64.9009 252.763 64.9447 252.65 64.9648 252.532C64.9848 252.414 64.9807 252.293 64.9527 252.176C64.9246 252.059 64.8733 251.95 64.8016 251.853C64.73 251.757 64.6397 251.676 64.536 251.616H64.5ZM67.26 257.052C67.0213 257.052 66.7924 257.147 66.6236 257.316C66.4548 257.484 66.36 257.713 66.36 257.952V264C66.36 264.239 66.4548 264.468 66.6236 264.636C66.7924 264.805 67.0213 264.9 67.26 264.9C67.4987 264.9 67.7276 264.805 67.8964 264.636C68.0652 264.468 68.16 264.239 68.16 264V258C68.1681 257.88 68.152 257.761 68.1125 257.647C68.073 257.534 68.0111 257.43 67.9304 257.342C67.8496 257.253 67.7518 257.182 67.6428 257.132C67.5338 257.082 67.4158 257.055 67.296 257.052H67.26ZM67.26 243.54C67.0223 243.543 66.7952 243.639 66.627 243.807C66.4589 243.975 66.3631 244.202 66.36 244.44V250.536C66.36 250.775 66.4548 251.004 66.6236 251.172C66.7924 251.341 67.0213 251.436 67.26 251.436C67.4987 251.436 67.7276 251.341 67.8964 251.172C68.0652 251.004 68.16 250.775 68.16 250.536V244.44C68.1453 244.218 68.0489 244.009 67.8893 243.854C67.7298 243.699 67.5184 243.608 67.296 243.6L67.26 243.54Z" fill="#E6E6E6"/>
    <path d="M524.4 247.092L519.12 250.14C518.922 250.26 518.777 250.451 518.715 250.673C518.653 250.896 518.677 251.134 518.784 251.34C518.906 251.536 519.098 251.678 519.32 251.738C519.543 251.798 519.78 251.772 519.984 251.664L525.264 248.616C525.366 248.557 525.456 248.478 525.528 248.384C525.6 248.29 525.653 248.183 525.684 248.069C525.714 247.955 525.722 247.836 525.707 247.719C525.691 247.601 525.653 247.488 525.594 247.386C525.535 247.283 525.456 247.194 525.362 247.122C525.269 247.05 525.162 246.997 525.047 246.966C524.933 246.935 524.814 246.928 524.697 246.943C524.579 246.958 524.466 246.997 524.364 247.056L524.4 247.092ZM531.264 245.064C531.42 245.067 531.574 245.025 531.708 244.944L537 241.896C537.207 241.776 537.358 241.58 537.42 241.349C537.482 241.118 537.449 240.873 537.33 240.666C537.211 240.459 537.014 240.308 536.783 240.246C536.553 240.184 536.307 240.216 536.1 240.336L530.808 243.396C530.641 243.498 530.512 243.651 530.441 243.832C530.369 244.013 530.357 244.213 530.409 244.401C530.46 244.589 530.572 244.756 530.726 244.875C530.88 244.995 531.069 245.061 531.264 245.064V245.064ZM537 250.14L531.708 247.092C531.501 246.972 531.255 246.94 531.025 247.002C530.794 247.064 530.597 247.215 530.478 247.422C530.359 247.629 530.326 247.874 530.388 248.105C530.45 248.336 530.601 248.532 530.808 248.652L536.1 251.7C536.234 251.781 536.388 251.823 536.544 251.82C536.701 251.821 536.856 251.78 536.993 251.702C537.13 251.624 537.244 251.512 537.324 251.376C537.444 251.17 537.478 250.925 537.42 250.694C537.361 250.463 537.215 250.264 537.012 250.14H537ZM525.3 243.396L520.02 240.336C519.815 240.229 519.576 240.205 519.354 240.267C519.131 240.329 518.94 240.474 518.82 240.672C518.71 240.877 518.684 241.116 518.747 241.339C518.809 241.563 518.956 241.754 519.156 241.872L524.436 244.92C524.571 244.998 524.724 245.039 524.88 245.04C525.037 245.041 525.192 245 525.329 244.922C525.466 244.844 525.58 244.732 525.66 244.596C525.772 244.39 525.798 244.149 525.733 243.924C525.668 243.7 525.516 243.51 525.312 243.396H525.3ZM528.06 248.82C527.821 248.82 527.592 248.915 527.424 249.083C527.255 249.252 527.16 249.481 527.16 249.72V255.828C527.16 256.067 527.255 256.295 527.424 256.464C527.592 256.633 527.821 256.728 528.06 256.728C528.299 256.728 528.528 256.633 528.696 256.464C528.865 256.295 528.96 256.067 528.96 255.828V249.72C528.957 249.484 528.863 249.259 528.697 249.091C528.532 248.923 528.308 248.826 528.072 248.82H528.06ZM528.06 235.32C527.821 235.32 527.592 235.415 527.424 235.583C527.255 235.752 527.16 235.981 527.16 236.22V242.316C527.16 242.555 527.255 242.783 527.424 242.952C527.592 243.121 527.821 243.216 528.06 243.216C528.299 243.216 528.528 243.121 528.696 242.952C528.865 242.783 528.96 242.555 528.96 242.316V236.22C528.957 235.984 528.863 235.759 528.697 235.591C528.532 235.423 528.308 235.326 528.072 235.32H528.06Z" fill="#E6E6E6"/>
    <path d="M299.22 236.316C297.336 232.08 297.192 227.856 297.192 223.62L297.048 210.936C296.904 202.476 296.952 194.016 296.952 185.556C297.036 168.648 297.3 151.728 297.54 134.808C297.78 117.888 298.056 100.98 298.44 84.06L299.04 58.692C299.292 50.292 299.496 41.772 299.808 33.312H300.192C300.504 41.772 300.708 50.232 300.96 58.692L301.56 84.06C301.944 100.98 302.148 117.9 302.46 134.808C302.772 151.716 302.964 168.648 303.048 185.556C303.048 194.016 303.048 202.476 302.952 210.936L302.808 223.62C302.808 227.856 302.664 232.08 300.78 236.316H299.22Z" fill="#1DBF73"/>
    <path d="M299.232 236.4C296.64 232.56 295.764 228.42 295.032 224.256L292.632 211.788C291.024 203.484 289.608 195.144 288.144 186.816C285.288 170.136 282.612 153.432 279.912 136.728C277.212 120.024 274.536 103.32 271.98 86.5919L268.2 61.5479C267 53.1479 265.728 44.8079 264.6 36.4319L264.972 36.3599C266.748 44.6399 268.416 52.9319 270.144 61.2119L275.136 86.0999C278.448 102.696 281.592 119.316 284.832 135.924C288.072 152.532 291.204 169.164 294.228 185.808C295.692 194.136 297.216 202.452 298.536 210.804L300.6 223.332C301.332 227.496 301.92 231.732 300.804 236.172L299.232 236.4Z" fill="#1DBF73"/>
    <path d="M299.268 236.58C296.052 233.244 294.468 229.32 293.016 225.348L288.54 213.48C285.516 205.584 282.672 197.616 279.78 189.66C274.068 173.736 268.536 157.752 262.98 141.768C257.424 125.784 251.892 109.8 246.468 93.7678L238.344 69.7678C235.692 61.7278 232.992 53.7118 230.388 45.6598L230.748 45.5278C233.94 53.3638 237.024 61.2478 240.156 69.1078L249.396 92.7478C255.6 108.48 261.516 124.296 267.6 140.088C273.684 155.88 279.6 171.708 285.516 187.584C288.408 195.528 291.36 203.46 294.108 211.452L298.308 223.452C299.76 227.424 301.068 231.456 300.708 236.064L299.268 236.58Z" fill="#1DBF73"/>
    <path d="M299.328 236.7C295.584 233.976 293.328 230.388 291.228 226.728L284.748 215.808C280.392 208.608 276.216 201.204 271.992 193.884C263.592 179.196 255.372 164.412 247.128 149.64C238.884 134.868 230.652 120.084 222.528 105.24L210.348 82.9679C206.352 75.5159 202.296 68.0879 198.348 60.5999L198.672 60.4199C203.172 67.6199 207.576 74.8199 212.04 82.0199L225.24 103.704C234.024 118.104 242.664 132.708 251.388 147.204C260.112 161.7 268.74 176.256 277.272 190.86C281.508 198.192 285.78 205.488 289.884 212.88L296.1 223.944C298.212 227.604 300.204 231.336 300.684 235.944L299.328 236.7Z" fill="#1DBF73"/>
    <path d="M299.412 236.808C295.248 234.78 292.416 231.636 289.692 228.408L281.424 218.808C275.88 212.424 270.48 205.908 265.044 199.428C254.244 186.42 243.564 173.292 232.872 160.176C222.18 147.06 211.524 133.92 200.94 120.72L185.088 100.86C179.844 94.212 174.564 87.66 169.368 80.928L169.656 80.688C175.332 86.964 180.924 93.312 186.564 99.624L203.364 118.68C214.536 131.388 225.564 144.216 236.676 156.984C247.788 169.752 258.816 182.568 269.748 195.48C275.184 201.96 280.668 208.404 285.996 214.968L294.036 224.784C296.748 228.024 299.352 231.36 300.624 235.812L299.412 236.808Z" fill="#1DBF73"/>
    <path d="M299.496 236.904C295.044 235.632 291.72 233.028 288.48 230.304L278.664 222.264C272.088 216.936 265.644 211.464 259.164 206.028C246.264 195.084 233.472 184.008 220.668 172.944C207.864 161.88 195.084 150.804 182.4 139.644L163.344 122.844C157.032 117.204 150.684 111.612 144.408 105.936L144.648 105.648C151.332 110.844 157.944 116.124 164.592 121.356L184.404 137.22C197.604 147.792 210.708 158.508 223.86 169.152C237.012 179.796 250.104 190.512 263.112 201.324C269.592 206.76 276.108 212.124 282.504 217.704L292.104 225.972C295.344 228.684 298.488 231.516 300.504 235.68L299.496 236.904Z" fill="#1DBF73"/>
    <path d="M299.616 236.976C295.008 236.496 291.216 234.576 287.616 232.404L276.564 226.188C269.16 222.084 261.864 217.788 254.544 213.576C239.928 205.044 225.408 196.356 210.888 187.692C196.368 179.028 181.836 170.328 167.376 161.532L145.704 148.332C138.504 143.88 131.304 139.476 124.104 134.976L124.296 134.652C131.772 138.6 139.2 142.656 146.652 146.652L168.924 158.82C183.768 166.944 198.528 175.224 213.324 183.42C228.12 191.616 242.88 199.896 257.568 208.284C264.9 212.52 272.256 216.684 279.504 221.052L290.412 227.52C294.084 229.632 297.672 231.876 300.384 235.632L299.616 236.976Z" fill="#1DBF73"/>
    <path d="M299.736 237.036C295.116 237.36 291.096 236.052 287.112 234.636L275.112 230.436C267.108 227.676 259.176 224.736 251.232 221.844C235.368 215.976 219.564 209.94 203.748 203.928C187.932 197.916 172.128 191.928 156.36 185.724L132.72 176.496C124.86 173.352 116.988 170.268 109.14 167.076L109.272 166.728C117.324 169.32 125.34 172.032 133.38 174.672L157.38 182.796C173.412 188.22 189.372 193.812 205.38 199.308C221.388 204.804 237.348 210.408 253.272 216.108C261.216 219 269.184 221.832 277.08 224.868L288.96 229.344C292.932 230.784 296.856 232.38 300.18 235.596L299.736 237.036Z" fill="#1DBF73"/>
    <path d="M299.868 237.072C295.368 238.2 291.18 237.612 287.016 236.868L274.5 234.816C266.1 233.484 257.82 231.96 249.492 230.496C232.848 227.484 216.228 224.28 199.62 221.1C183.012 217.92 166.38 214.728 149.796 211.404L124.908 206.4C116.628 204.684 108.324 203.016 100.056 201.228L100.116 200.868C108.516 202.068 116.916 203.268 125.244 204.468L150.336 208.296C167.064 210.852 183.756 213.588 200.472 216.216C217.188 218.844 233.88 221.592 250.548 224.448C258.876 225.924 267.216 227.328 275.52 228.948L288 231.336C292.176 232.08 296.304 232.956 300.144 235.548L299.868 237.072Z" fill="#1DBF73"/>
    <path d="M300 237.084C295.776 238.968 291.54 239.124 287.316 239.124L274.62 239.268C266.22 239.412 257.712 239.352 249.252 239.352C232.332 239.268 215.412 239.004 198.504 238.764C181.596 238.524 164.664 238.26 147.756 237.864L122.4 237.276C114 237.012 105.48 236.808 97.02 236.496V236.124C105.42 235.812 113.94 235.608 122.4 235.344L147.78 234.756C164.688 234.372 181.608 234.156 198.528 233.856C215.448 233.556 232.356 233.352 249.276 233.268C257.676 233.268 266.196 233.268 274.644 233.352L287.34 233.508C291.564 233.508 295.74 233.652 300.024 235.536L300 237.084Z" fill="#1DBF73"/>
    <path d="M300.132 237.072C296.292 239.664 292.164 240.552 287.988 241.284L275.52 243.684C267.216 245.304 258.876 246.708 250.548 248.184C233.88 251.04 217.176 253.716 200.472 256.416C183.768 259.116 167.064 261.78 150.336 264.348L125.244 268.164C116.844 269.364 108.444 270.648 100.116 271.764L100.056 271.404C108.324 269.616 116.628 267.948 124.908 266.232L149.796 261.24C166.38 257.916 183.012 254.784 199.62 251.544C216.228 248.304 232.848 245.172 249.492 242.148C257.82 240.684 266.148 239.16 274.5 237.828L287.016 235.776C291.18 235.032 295.416 234.444 299.868 235.572L300.132 237.072Z" fill="#1DBF73"/>
    <path d="M300.264 237.036C296.94 240.252 293.064 241.836 289.044 243.288L277.164 247.764C269.268 250.8 261.3 253.632 253.356 256.536C237.432 262.236 221.436 267.78 205.464 273.336C189.492 278.892 173.496 284.424 157.464 289.848L133.464 297.972C125.424 300.612 117.408 303.324 109.356 305.916L109.224 305.568C117.072 302.376 124.944 299.292 132.804 296.16L156.444 286.92C172.212 280.776 188.04 274.788 203.832 268.716C219.624 262.644 235.452 256.716 251.316 250.8C259.26 247.908 267.192 244.968 275.196 242.208L287.196 238.008C291.18 236.568 295.2 235.26 299.82 235.608L300.264 237.036Z" fill="#1DBF73"/>
    <path d="M300.384 236.976C297.672 240.732 294.084 242.976 290.412 245.088L279.504 251.556C272.304 255.912 264.9 260.088 257.568 264.324C242.88 272.724 228.096 280.944 213.324 289.188C198.552 297.432 183.768 305.664 168.924 313.788L146.652 325.956C139.2 329.964 131.772 334.02 124.296 337.956L124.104 337.632C131.304 333.132 138.504 328.728 145.704 324.276L167.376 311.076C181.836 302.28 196.392 293.64 210.888 284.928C225.384 276.216 239.928 267.564 254.544 259.032C261.864 254.808 269.16 250.524 276.564 246.42L287.616 240.216C291.288 238.092 295.02 236.112 299.616 235.632L300.384 236.976Z" fill="#1DBF73"/>
    <path d="M300.492 236.904C298.476 241.068 295.332 243.9 292.092 246.612L282.492 254.892C276.096 260.436 269.58 265.824 263.1 271.26C250.092 282.06 236.964 292.752 223.848 303.432C210.732 314.112 197.604 324.792 184.392 335.364L164.58 351.228C157.932 356.46 151.38 361.74 144.636 366.936L144.396 366.648C150.672 360.972 157.02 355.38 163.332 349.74L182.388 332.94C195.108 321.78 207.936 310.74 220.692 299.64C233.448 288.54 246.288 277.5 259.188 266.568C265.668 261.132 272.112 255.648 278.688 250.32L288.504 242.28C291.744 239.556 295.068 236.952 299.52 235.68L300.492 236.904Z" fill="#1DBF73"/>
    <path d="M300.588 236.808C299.316 241.26 296.712 244.596 294 247.836L285.96 257.652C280.632 264.228 275.16 270.66 269.712 277.14C258.78 290.052 247.692 302.844 236.64 315.636C225.588 328.428 214.5 341.232 203.328 354L186.528 373.056C180.888 379.368 175.296 385.716 169.62 391.992L169.332 391.752C174.528 385.068 179.808 378.468 185.052 371.82L200.904 351.996C211.488 338.796 222.204 325.704 232.836 312.552C243.468 299.4 254.196 286.296 265.008 273.288C270.444 266.808 275.808 260.292 281.388 253.908L289.656 244.308C292.38 241.068 295.212 237.924 299.376 235.908L300.588 236.808Z" fill="#1DBF73"/>
    <path d="M300.672 236.7C300.192 241.308 298.2 245.04 296.088 248.7L289.872 259.764C285.768 267.156 281.472 274.464 277.26 281.784C268.728 296.388 260.04 310.908 251.376 325.44C242.712 339.972 234 354.48 225.228 368.94L212.028 390.624C207.564 397.824 203.16 405.024 198.66 412.224L198.336 412.032C202.296 404.544 206.352 397.128 210.336 389.664L222.516 367.392C230.64 352.548 238.92 337.8 247.116 322.992C255.312 308.184 263.592 293.436 271.98 278.748C276.204 271.428 280.38 264.072 284.736 256.824L291.216 245.904C293.328 242.304 295.572 238.704 299.316 235.932L300.672 236.7Z" fill="#1DBF73"/>
    <path d="M300.732 236.58C301.056 241.2 299.748 245.22 298.332 249.192L294.132 261.192C291.384 269.184 288.432 277.116 285.54 285.06C279.6 300.912 273.6 316.716 267.6 332.532C261.6 348.348 255.6 364.152 249.408 379.908L240.168 403.548C237.036 411.408 233.952 419.292 230.76 427.128L230.4 427.008C233.004 418.944 235.704 410.928 238.356 402.888L246.48 378.888C251.904 362.868 257.496 346.896 262.992 330.888C268.488 314.88 274.08 298.92 279.792 282.996C282.684 275.052 285.528 267.084 288.552 259.176L293.028 247.308C294.48 243.336 296.064 239.412 299.28 236.076L300.732 236.58Z" fill="#1DBF73"/>
    <path d="M300.768 236.4C301.884 240.888 301.296 245.076 300.564 249.24L298.5 261.768C297.18 270.168 295.656 278.436 294.192 286.776C291.168 303.42 287.964 320.028 284.796 336.648C281.628 353.268 278.412 369.876 275.1 386.472L270.108 411.36C268.38 419.64 266.712 427.932 264.936 436.212L264.564 436.14C265.764 427.74 266.964 419.4 268.164 411.024L271.992 385.932C274.548 369.204 277.284 352.512 279.924 335.796C282.564 319.08 285.3 302.388 288.156 285.708C289.62 277.38 291.036 269.04 292.644 260.736L295.044 248.268C295.776 244.104 296.652 239.964 299.244 236.124L300.768 236.4Z" fill="#1DBF73"/>
    <path d="M300.78 236.316C302.664 240.54 302.808 244.716 302.808 249L302.952 261.684C303.096 270.144 303.048 278.604 303.048 287.064C302.964 303.972 302.7 320.892 302.46 337.812C302.22 354.732 301.944 371.64 301.56 388.56L300.96 414C300.708 422.4 300.504 430.908 300.192 439.368H299.808C299.496 430.968 299.292 422.448 299.04 414L298.44 388.62C298.056 371.7 297.852 354.792 297.54 337.872C297.228 320.952 297.036 304.032 296.952 287.124C296.952 278.664 296.952 270.204 297.048 261.744L297.192 249.06C297.192 244.824 297.336 240.6 299.22 236.376L300.78 236.316Z" fill="#1DBF73"/>
    <path d="M300.768 236.172C303.36 240.012 304.236 244.152 304.968 248.316L307.368 260.784C308.976 269.088 310.392 277.428 311.856 285.756C314.712 302.436 317.388 319.14 320.088 335.844C322.788 352.548 325.464 369.252 328.02 385.98L331.848 411.072C333.048 419.472 334.32 427.812 335.448 436.188L335.076 436.26C333.3 427.98 331.632 419.688 329.904 411.408L324.912 386.52C321.6 369.924 318.456 353.304 315.216 336.696C311.976 320.088 308.844 303.468 305.82 286.824C304.356 278.424 302.832 270.168 301.512 261.816L299.448 249.288C298.716 245.124 298.128 240.888 299.244 236.448L300.768 236.172Z" fill="#1DBF73"/>
    <path d="M300.732 236.04C303.948 239.376 305.532 243.3 306.984 247.272L311.46 259.14C314.484 267.048 317.328 275.016 320.22 282.96C325.932 298.884 331.464 314.868 337.02 330.852C342.576 346.836 348.108 362.82 353.532 378.852L361.656 402.852C364.308 410.892 367.008 418.908 369.612 426.972L369.252 427.092C366.06 419.256 362.976 411.372 359.844 403.512L350.604 379.872C344.46 364.116 338.484 348.288 332.412 332.496C326.34 316.704 320.412 300.876 314.496 285C311.604 277.056 308.652 269.124 305.904 261.132L301.704 249.132C300.252 245.16 298.944 241.14 299.304 236.52L300.732 236.04Z" fill="#1DBF73"/>
    <path d="M300.672 235.92C304.416 238.644 306.672 242.232 308.772 245.892L315.252 256.812C319.608 264.012 323.784 271.416 328.008 278.736C336.408 293.424 344.628 308.208 352.872 322.98C361.116 337.752 369.348 352.536 377.472 367.38L389.652 389.652C393.648 397.116 397.704 404.532 401.652 412.02L401.328 412.212C396.828 405.012 392.424 397.812 387.96 390.612L374.76 368.928C365.976 354.468 357.336 339.924 348.612 325.428C339.888 310.932 331.272 296.4 322.8 281.784C318.564 274.464 314.292 267.156 310.188 259.764L303.972 248.7C301.86 245.04 299.868 241.308 299.388 236.7L300.672 235.92Z" fill="#1DBF73"/>
    <path d="M300.588 235.812C304.752 237.84 307.584 240.984 310.308 244.212L318.576 253.812C324.12 260.196 329.52 266.712 334.956 273.192C345.756 286.2 356.436 299.34 367.128 312.456C377.82 325.572 388.476 338.7 399.06 351.9L414.912 371.724C420.156 378.372 425.436 384.924 430.632 391.656L430.344 391.896C424.668 385.62 419.076 379.272 413.436 372.96L396.636 353.904C385.464 341.196 374.436 328.368 363.324 315.6C352.212 302.832 341.22 290.052 330.288 277.2C324.852 270.72 319.368 264.288 314.04 257.712L306 247.896C303.288 244.656 300.684 241.32 299.412 236.868L300.588 235.812Z" fill="#1DBF73"/>
    <path d="M300.492 235.716C304.956 236.988 308.28 239.592 311.52 242.316L321.336 250.356C327.912 255.684 334.356 261.156 340.836 266.604C353.736 277.536 366.528 288.612 379.332 299.676C392.136 310.74 404.916 321.816 417.636 332.976L436.692 349.776C443.004 355.416 449.352 361.008 455.628 366.684L455.388 366.972C448.704 361.776 442.092 356.496 435.444 351.264L415.632 335.4C402.432 324.828 389.328 314.112 376.176 303.468C363.024 292.824 349.932 282.108 336.924 271.296C330.444 265.86 323.928 260.496 317.532 254.928L307.932 246.648C304.692 243.936 301.548 241.104 299.532 236.94L300.492 235.716Z" fill="#1DBF73"/>
    <path d="M300.384 235.644C304.992 236.124 308.724 238.044 312.384 240.228L323.436 246.432C330.84 250.536 338.136 254.832 345.456 259.044C360.072 267.576 374.592 276.264 389.112 284.94C403.632 293.616 418.164 302.292 432.624 311.088L454.296 324.288C461.496 328.74 468.696 333.144 475.896 337.644L475.704 337.968C468.228 334.02 460.8 329.964 453.348 325.968L431.076 313.8C416.232 305.676 401.472 297.396 386.676 289.2C371.88 281.004 357.12 272.724 342.432 264.336C335.1 260.1 327.744 255.936 320.496 251.568L309.6 245.088C305.928 242.976 302.34 240.732 299.628 236.976L300.384 235.644Z" fill="#1DBF73"/>
    <path d="M300.264 235.584C304.884 235.26 308.904 236.568 312.888 237.984L324.888 242.184C332.892 244.944 340.824 247.884 348.768 250.776C364.632 256.644 380.436 262.68 396.252 268.692C412.068 274.704 427.872 280.692 443.64 286.896L467.28 296.136C475.14 299.268 483.012 302.352 490.86 305.544L490.728 305.892C482.676 303.3 474.66 300.588 466.62 297.948L442.62 289.824C426.588 284.4 410.628 278.808 394.62 273.312C378.612 267.816 362.652 262.212 346.728 256.512C338.784 253.608 330.816 250.776 322.92 247.74L311.04 243.264C307.068 241.824 303.144 240.228 299.82 237.012L300.264 235.584Z" fill="#1DBF73"/>
    <path d="M300.132 235.548C304.632 234.42 308.82 235.008 312.984 235.752L325.5 237.804C333.9 239.136 342.18 240.66 350.508 242.124C367.152 245.148 383.772 248.34 400.38 251.52C416.988 254.7 433.608 257.892 450.204 261.216L475.092 266.208C483.372 267.924 491.676 269.592 499.944 271.38L499.884 271.74C491.484 270.54 483.084 269.34 474.756 268.14L449.664 264.324C432.936 261.756 416.244 259.032 399.528 256.392C382.812 253.752 366.12 251.016 349.452 248.16C341.124 246.684 332.784 245.28 324.48 243.66L312.012 241.26C307.836 240.528 303.708 239.64 299.868 237.048L300.132 235.548Z" fill="#1DBF73"/>
    <path d="M300 235.536C304.224 233.652 308.46 233.496 312.684 233.508L325.38 233.352C333.78 233.208 342.288 233.268 350.748 233.268C367.668 233.352 384.588 233.616 401.496 233.856C418.404 234.096 435.336 234.372 452.244 234.756L477.624 235.344C486.084 235.608 494.544 235.812 503.004 236.124V236.496C494.544 236.808 486.084 237.012 477.624 237.276L452.244 237.864C435.336 238.26 418.416 238.464 401.496 238.764C384.576 239.064 367.668 239.268 350.748 239.352C342.288 239.352 333.828 239.352 325.38 239.268L312.684 239.124C308.46 239.124 304.284 238.968 300 237.084V235.536Z" fill="#1DBF73"/>
    <path d="M299.868 235.548C303.708 232.956 307.836 232.08 312.012 231.336L324.48 228.996C332.784 227.376 341.124 225.972 349.452 224.496C366.12 221.64 382.824 218.964 399.528 216.264C416.232 213.564 432.936 210.9 449.664 208.344L474.756 204.516C483.156 203.316 491.496 202.032 499.884 200.916L499.944 201.276C491.676 203.064 483.372 204.732 475.092 206.448L450.204 211.44C433.608 214.764 416.988 217.896 400.38 221.136C383.772 224.376 367.152 227.52 350.508 230.532C342.18 231.996 333.852 233.52 325.5 234.852L312.984 236.904C308.82 237.648 304.584 238.236 300.132 237.108L299.868 235.548Z" fill="#1DBF73"/>
    <path d="M299.736 235.584C303.06 232.368 306.936 230.784 310.956 229.332L322.836 224.856C330.732 221.82 338.7 218.988 346.644 216.096C362.568 210.384 378.564 204.852 394.536 199.296C410.508 193.74 426.504 188.208 442.536 182.784L466.536 174.66C474.576 172.02 482.592 169.308 490.644 166.716L490.776 167.064C482.928 170.256 475.056 173.34 467.196 176.484L443.556 185.712C427.788 191.868 411.96 197.844 396.168 203.916C380.376 209.988 364.548 215.916 348.684 221.832C340.74 224.724 332.808 227.664 324.804 230.424L312.804 234.624C308.82 236.064 304.8 237.372 300.18 237.024L299.736 235.584Z" fill="#1DBF73"/>
    <path d="M299.616 235.644C302.328 231.888 305.916 229.644 309.588 227.532L320.496 221.064C327.696 216.708 335.1 212.532 342.432 208.296C357.12 199.896 371.904 191.688 386.676 183.432C401.448 175.176 416.232 166.956 431.076 158.832L453.348 146.664C460.8 142.656 468.228 138.6 475.704 134.664L475.896 134.988C468.696 139.488 461.496 143.892 454.296 148.344L432.624 161.544C418.224 170.34 403.608 178.98 389.112 187.704C374.616 196.428 360.072 205.056 345.456 213.588C338.136 217.812 330.84 222.096 323.436 226.2L312.384 232.416C308.712 234.528 304.98 236.508 300.384 236.988L299.616 235.644Z" fill="#1DBF73"/>
    <path d="M299.496 235.716C301.524 231.552 304.668 228.72 307.896 226.008L317.496 217.74C323.892 212.184 330.408 206.796 336.888 201.36C349.896 190.56 363.024 179.88 376.14 169.188C389.256 158.496 402.384 147.828 415.596 137.256L435.408 121.392C442.056 116.16 448.668 110.88 455.352 105.684L455.592 105.972C449.316 111.648 442.968 117.24 436.656 122.88L417.6 139.68C404.88 150.84 392.052 161.88 379.296 172.98C366.54 184.08 353.736 195.084 340.8 206.028C334.32 211.464 327.876 216.936 321.3 222.264L311.484 230.304C308.244 233.028 304.92 235.632 300.456 236.904L299.496 235.716Z" fill="#1DBF73"/>
    <path d="M299.412 235.812C300.684 231.36 303.288 228.024 306 224.784L314.04 214.968C319.368 208.404 324.84 201.96 330.288 195.48C341.22 182.568 352.296 169.788 363.36 156.984C374.424 144.18 385.5 131.388 396.672 118.68L413.472 99.624C419.112 93.312 424.704 86.964 430.38 80.688L430.668 80.928C425.472 87.612 420.192 94.212 414.948 100.86L399.096 120.684C388.512 133.884 377.796 146.976 367.164 160.14C356.532 173.304 345.804 186.384 334.992 199.392C329.556 205.872 324.192 212.388 318.612 218.772L310.344 228.372C307.62 231.612 304.788 234.756 300.624 236.772L299.412 235.812Z" fill="#1DBF73"/>
    <path d="M299.328 235.92C299.808 231.312 301.8 227.58 303.912 223.92L310.128 212.856C314.232 205.464 318.528 198.168 322.74 190.836C331.272 176.232 339.96 161.712 348.624 147.18C357.288 132.648 366 118.14 374.772 103.68L387.972 81.996C392.436 74.796 396.84 67.596 401.34 60.396L401.664 60.576C397.704 68.064 393.648 75.492 389.664 82.944L377.472 105.24C369.348 120.084 361.068 134.832 352.872 149.64C344.676 164.448 336.396 179.196 328.008 193.884C323.784 201.204 319.608 208.56 315.252 215.808L308.772 226.728C306.66 230.388 304.416 233.928 300.672 236.7L299.328 235.92Z" fill="#1DBF73"/>
    <path d="M299.268 236.04C298.944 231.432 300.252 227.4 301.668 223.428L305.868 211.428C308.616 203.436 311.568 195.504 314.46 187.56C320.4 171.708 326.4 155.904 332.4 140.088C338.4 124.272 344.4 108.48 350.592 92.7122L359.832 69.0722C362.964 61.2122 366.048 53.3282 369.24 45.4922L369.6 45.6242C366.996 53.6762 364.296 61.6922 361.644 69.7322L353.52 93.7322C348.096 109.752 342.504 125.724 337.008 141.732C331.512 157.74 325.92 173.7 320.208 189.624C317.316 197.58 314.472 205.548 311.448 213.444L306.972 225.312C305.52 229.284 303.936 233.208 300.72 236.544L299.268 236.04Z" fill="#1DBF73"/>
    <path d="M299.232 236.172C298.116 231.684 298.704 227.496 299.436 223.332L301.5 210.804C302.82 202.404 304.344 194.136 305.808 185.808C308.832 169.164 312.036 152.544 315.204 135.924C318.372 119.304 321.588 102.696 324.9 86.1001L329.892 61.2001C331.62 52.9201 333.288 44.6281 335.064 36.3481L335.436 36.4201C334.236 44.8201 333.036 53.2201 331.836 61.5361L327.972 86.6401C325.416 103.368 322.68 120.072 320.04 136.776C317.4 153.48 314.664 170.184 311.808 186.864C310.344 195.192 308.928 203.532 307.32 211.836L304.92 224.304C304.188 228.468 303.312 232.608 300.72 236.448L299.232 236.172Z" fill="#1DBF73"/>
    <g opacity="0.85">
    <path d="M299.22 236.316C297.336 232.08 297.192 227.856 297.192 223.62L297.048 210.936C296.904 202.476 296.952 194.016 296.952 185.556C297.036 168.648 297.3 151.728 297.54 134.808C297.78 117.888 298.056 100.98 298.44 84.06L299.04 58.692C299.292 50.292 299.496 41.772 299.808 33.312H300.192C300.504 41.772 300.708 50.232 300.96 58.692L301.56 84.06C301.944 100.98 302.148 117.9 302.46 134.808C302.772 151.716 302.964 168.648 303.048 185.556C303.048 194.016 303.048 202.476 302.952 210.936L302.808 223.62C302.808 227.856 302.664 232.08 300.78 236.316H299.22Z" fill="white"/>
    <path d="M299.232 236.4C296.64 232.56 295.764 228.42 295.032 224.256L292.632 211.788C291.024 203.484 289.608 195.144 288.144 186.816C285.288 170.136 282.612 153.432 279.912 136.728C277.212 120.024 274.536 103.32 271.98 86.5919L268.2 61.5479C267 53.1479 265.728 44.8079 264.6 36.4319L264.972 36.3599C266.748 44.6399 268.416 52.9319 270.144 61.2119L275.136 86.0999C278.448 102.696 281.592 119.316 284.832 135.924C288.072 152.532 291.204 169.164 294.228 185.808C295.692 194.136 297.216 202.452 298.536 210.804L300.6 223.332C301.332 227.496 301.92 231.732 300.804 236.172L299.232 236.4Z" fill="white"/>
    <path d="M299.268 236.58C296.052 233.244 294.468 229.32 293.016 225.348L288.54 213.48C285.516 205.584 282.672 197.616 279.78 189.66C274.068 173.736 268.536 157.752 262.98 141.768C257.424 125.784 251.892 109.8 246.468 93.7678L238.344 69.7678C235.692 61.7278 232.992 53.7118 230.388 45.6598L230.748 45.5278C233.94 53.3638 237.024 61.2478 240.156 69.1078L249.396 92.7478C255.6 108.48 261.516 124.296 267.6 140.088C273.684 155.88 279.6 171.708 285.516 187.584C288.408 195.528 291.36 203.46 294.108 211.452L298.308 223.452C299.76 227.424 301.068 231.456 300.708 236.064L299.268 236.58Z" fill="white"/>
    <path d="M299.328 236.7C295.584 233.976 293.328 230.388 291.228 226.728L284.748 215.808C280.392 208.608 276.216 201.204 271.992 193.884C263.592 179.196 255.372 164.412 247.128 149.64C238.884 134.868 230.652 120.084 222.528 105.24L210.348 82.9679C206.352 75.5159 202.296 68.0879 198.348 60.5999L198.672 60.4199C203.172 67.6199 207.576 74.8199 212.04 82.0199L225.24 103.704C234.024 118.104 242.664 132.708 251.388 147.204C260.112 161.7 268.74 176.256 277.272 190.86C281.508 198.192 285.78 205.488 289.884 212.88L296.1 223.944C298.212 227.604 300.204 231.336 300.684 235.944L299.328 236.7Z" fill="white"/>
    <path d="M299.412 236.808C295.248 234.78 292.416 231.636 289.692 228.408L281.424 218.808C275.88 212.424 270.48 205.908 265.044 199.428C254.244 186.42 243.564 173.292 232.872 160.176C222.18 147.06 211.524 133.92 200.94 120.72L185.088 100.86C179.844 94.212 174.564 87.66 169.368 80.928L169.656 80.688C175.332 86.964 180.924 93.312 186.564 99.624L203.364 118.68C214.536 131.388 225.564 144.216 236.676 156.984C247.788 169.752 258.816 182.568 269.748 195.48C275.184 201.96 280.668 208.404 285.996 214.968L294.036 224.784C296.748 228.024 299.352 231.36 300.624 235.812L299.412 236.808Z" fill="white"/>
    <path d="M299.496 236.904C295.044 235.632 291.72 233.028 288.48 230.304L278.664 222.264C272.088 216.936 265.644 211.464 259.164 206.028C246.264 195.084 233.472 184.008 220.668 172.944C207.864 161.88 195.084 150.804 182.4 139.644L163.344 122.844C157.032 117.204 150.684 111.612 144.408 105.936L144.648 105.648C151.332 110.844 157.944 116.124 164.592 121.356L184.404 137.22C197.604 147.792 210.708 158.508 223.86 169.152C237.012 179.796 250.104 190.512 263.112 201.324C269.592 206.76 276.108 212.124 282.504 217.704L292.104 225.972C295.344 228.684 298.488 231.516 300.504 235.68L299.496 236.904Z" fill="white"/>
    <path d="M299.616 236.976C295.008 236.496 291.216 234.576 287.616 232.404L276.564 226.188C269.16 222.084 261.864 217.788 254.544 213.576C239.928 205.044 225.408 196.356 210.888 187.692C196.368 179.028 181.836 170.328 167.376 161.532L145.704 148.332C138.504 143.88 131.304 139.476 124.104 134.976L124.296 134.652C131.772 138.6 139.2 142.656 146.652 146.652L168.924 158.82C183.768 166.944 198.528 175.224 213.324 183.42C228.12 191.616 242.88 199.896 257.568 208.284C264.9 212.52 272.256 216.684 279.504 221.052L290.412 227.52C294.084 229.632 297.672 231.876 300.384 235.632L299.616 236.976Z" fill="white"/>
    <path d="M299.736 237.036C295.116 237.36 291.096 236.052 287.112 234.636L275.112 230.436C267.108 227.676 259.176 224.736 251.232 221.844C235.368 215.976 219.564 209.94 203.748 203.928C187.932 197.916 172.128 191.928 156.36 185.724L132.72 176.496C124.86 173.352 116.988 170.268 109.14 167.076L109.272 166.728C117.324 169.32 125.34 172.032 133.38 174.672L157.38 182.796C173.412 188.22 189.372 193.812 205.38 199.308C221.388 204.804 237.348 210.408 253.272 216.108C261.216 219 269.184 221.832 277.08 224.868L288.96 229.344C292.932 230.784 296.856 232.38 300.18 235.596L299.736 237.036Z" fill="white"/>
    <path d="M299.868 237.072C295.368 238.2 291.18 237.612 287.016 236.868L274.5 234.816C266.1 233.484 257.82 231.96 249.492 230.496C232.848 227.484 216.228 224.28 199.62 221.1C183.012 217.92 166.38 214.728 149.796 211.404L124.908 206.4C116.628 204.684 108.324 203.016 100.056 201.228L100.116 200.868C108.516 202.068 116.916 203.268 125.244 204.468L150.336 208.296C167.064 210.852 183.756 213.588 200.472 216.216C217.188 218.844 233.88 221.592 250.548 224.448C258.876 225.924 267.216 227.328 275.52 228.948L288 231.336C292.176 232.08 296.304 232.956 300.144 235.548L299.868 237.072Z" fill="white"/>
    <path d="M300 237.084C295.776 238.968 291.54 239.124 287.316 239.124L274.62 239.268C266.22 239.412 257.712 239.352 249.252 239.352C232.332 239.268 215.412 239.004 198.504 238.764C181.596 238.524 164.664 238.26 147.756 237.864L122.4 237.276C114 237.012 105.48 236.808 97.02 236.496V236.124C105.42 235.812 113.94 235.608 122.4 235.344L147.78 234.756C164.688 234.372 181.608 234.156 198.528 233.856C215.448 233.556 232.356 233.352 249.276 233.268C257.676 233.268 266.196 233.268 274.644 233.352L287.34 233.508C291.564 233.508 295.74 233.652 300.024 235.536L300 237.084Z" fill="white"/>
    <path d="M300.132 237.072C296.292 239.664 292.164 240.552 287.988 241.284L275.52 243.684C267.216 245.304 258.876 246.708 250.548 248.184C233.88 251.04 217.176 253.716 200.472 256.416C183.768 259.116 167.064 261.78 150.336 264.348L125.244 268.164C116.844 269.364 108.444 270.648 100.116 271.764L100.056 271.404C108.324 269.616 116.628 267.948 124.908 266.232L149.796 261.24C166.38 257.916 183.012 254.784 199.62 251.544C216.228 248.304 232.848 245.172 249.492 242.148C257.82 240.684 266.148 239.16 274.5 237.828L287.016 235.776C291.18 235.032 295.416 234.444 299.868 235.572L300.132 237.072Z" fill="white"/>
    <path d="M300.264 237.036C296.94 240.252 293.064 241.836 289.044 243.288L277.164 247.764C269.268 250.8 261.3 253.632 253.356 256.536C237.432 262.236 221.436 267.78 205.464 273.336C189.492 278.892 173.496 284.424 157.464 289.848L133.464 297.972C125.424 300.612 117.408 303.324 109.356 305.916L109.224 305.568C117.072 302.376 124.944 299.292 132.804 296.16L156.444 286.92C172.212 280.776 188.04 274.788 203.832 268.716C219.624 262.644 235.452 256.716 251.316 250.8C259.26 247.908 267.192 244.968 275.196 242.208L287.196 238.008C291.18 236.568 295.2 235.26 299.82 235.608L300.264 237.036Z" fill="white"/>
    <path d="M300.384 236.976C297.672 240.732 294.084 242.976 290.412 245.088L279.504 251.556C272.304 255.912 264.9 260.088 257.568 264.324C242.88 272.724 228.096 280.944 213.324 289.188C198.552 297.432 183.768 305.664 168.924 313.788L146.652 325.956C139.2 329.964 131.772 334.02 124.296 337.956L124.104 337.632C131.304 333.132 138.504 328.728 145.704 324.276L167.376 311.076C181.836 302.28 196.392 293.64 210.888 284.928C225.384 276.216 239.928 267.564 254.544 259.032C261.864 254.808 269.16 250.524 276.564 246.42L287.616 240.216C291.288 238.092 295.02 236.112 299.616 235.632L300.384 236.976Z" fill="white"/>
    <path d="M300.492 236.904C298.476 241.068 295.332 243.9 292.092 246.612L282.492 254.892C276.096 260.436 269.58 265.824 263.1 271.26C250.092 282.06 236.964 292.752 223.848 303.432C210.732 314.112 197.604 324.792 184.392 335.364L164.58 351.228C157.932 356.46 151.38 361.74 144.636 366.936L144.396 366.648C150.672 360.972 157.02 355.38 163.332 349.74L182.388 332.94C195.108 321.78 207.936 310.74 220.692 299.64C233.448 288.54 246.288 277.5 259.188 266.568C265.668 261.132 272.112 255.648 278.688 250.32L288.504 242.28C291.744 239.556 295.068 236.952 299.52 235.68L300.492 236.904Z" fill="white"/>
    <path d="M300.588 236.808C299.316 241.26 296.712 244.596 294 247.836L285.96 257.652C280.632 264.228 275.16 270.66 269.712 277.14C258.78 290.052 247.692 302.844 236.64 315.636C225.588 328.428 214.5 341.232 203.328 354L186.528 373.056C180.888 379.368 175.296 385.716 169.62 391.992L169.332 391.752C174.528 385.068 179.808 378.468 185.052 371.82L200.904 351.996C211.488 338.796 222.204 325.704 232.836 312.552C243.468 299.4 254.196 286.296 265.008 273.288C270.444 266.808 275.808 260.292 281.388 253.908L289.656 244.308C292.38 241.068 295.212 237.924 299.376 235.908L300.588 236.808Z" fill="white"/>
    <path d="M300.672 236.7C300.192 241.308 298.2 245.04 296.088 248.7L289.872 259.764C285.768 267.156 281.472 274.464 277.26 281.784C268.728 296.388 260.04 310.908 251.376 325.44C242.712 339.972 234 354.48 225.228 368.94L212.028 390.624C207.564 397.824 203.16 405.024 198.66 412.224L198.336 412.032C202.296 404.544 206.352 397.128 210.336 389.664L222.516 367.392C230.64 352.548 238.92 337.8 247.116 322.992C255.312 308.184 263.592 293.436 271.98 278.748C276.204 271.428 280.38 264.072 284.736 256.824L291.216 245.904C293.328 242.304 295.572 238.704 299.316 235.932L300.672 236.7Z" fill="white"/>
    <path d="M300.732 236.58C301.056 241.2 299.748 245.22 298.332 249.192L294.132 261.192C291.384 269.184 288.432 277.116 285.54 285.06C279.6 300.912 273.6 316.716 267.6 332.532C261.6 348.348 255.6 364.152 249.408 379.908L240.168 403.548C237.036 411.408 233.952 419.292 230.76 427.128L230.4 427.008C233.004 418.944 235.704 410.928 238.356 402.888L246.48 378.888C251.904 362.868 257.496 346.896 262.992 330.888C268.488 314.88 274.08 298.92 279.792 282.996C282.684 275.052 285.528 267.084 288.552 259.176L293.028 247.308C294.48 243.336 296.064 239.412 299.28 236.076L300.732 236.58Z" fill="white"/>
    <path d="M300.768 236.4C301.884 240.888 301.296 245.076 300.564 249.24L298.5 261.768C297.18 270.168 295.656 278.436 294.192 286.776C291.168 303.42 287.964 320.028 284.796 336.648C281.628 353.268 278.412 369.876 275.1 386.472L270.108 411.36C268.38 419.64 266.712 427.932 264.936 436.212L264.564 436.14C265.764 427.74 266.964 419.4 268.164 411.024L271.992 385.932C274.548 369.204 277.284 352.512 279.924 335.796C282.564 319.08 285.3 302.388 288.156 285.708C289.62 277.38 291.036 269.04 292.644 260.736L295.044 248.268C295.776 244.104 296.652 239.964 299.244 236.124L300.768 236.4Z" fill="white"/>
    <path d="M300.78 236.316C302.664 240.54 302.808 244.716 302.808 249L302.952 261.684C303.096 270.144 303.048 278.604 303.048 287.064C302.964 303.972 302.7 320.892 302.46 337.812C302.22 354.732 301.944 371.64 301.56 388.56L300.96 414C300.708 422.4 300.504 430.908 300.192 439.368H299.808C299.496 430.968 299.292 422.448 299.04 414L298.44 388.62C298.056 371.7 297.852 354.792 297.54 337.872C297.228 320.952 297.036 304.032 296.952 287.124C296.952 278.664 296.952 270.204 297.048 261.744L297.192 249.06C297.192 244.824 297.336 240.6 299.22 236.376L300.78 236.316Z" fill="white"/>
    <path d="M300.768 236.172C303.36 240.012 304.236 244.152 304.968 248.316L307.368 260.784C308.976 269.088 310.392 277.428 311.856 285.756C314.712 302.436 317.388 319.14 320.088 335.844C322.788 352.548 325.464 369.252 328.02 385.98L331.848 411.072C333.048 419.472 334.32 427.812 335.448 436.188L335.076 436.26C333.3 427.98 331.632 419.688 329.904 411.408L324.912 386.52C321.6 369.924 318.456 353.304 315.216 336.696C311.976 320.088 308.844 303.468 305.82 286.824C304.356 278.424 302.832 270.168 301.512 261.816L299.448 249.288C298.716 245.124 298.128 240.888 299.244 236.448L300.768 236.172Z" fill="white"/>
    <path d="M300.732 236.04C303.948 239.376 305.532 243.3 306.984 247.272L311.46 259.14C314.484 267.048 317.328 275.016 320.22 282.96C325.932 298.884 331.464 314.868 337.02 330.852C342.576 346.836 348.108 362.82 353.532 378.852L361.656 402.852C364.308 410.892 367.008 418.908 369.612 426.972L369.252 427.092C366.06 419.256 362.976 411.372 359.844 403.512L350.604 379.872C344.46 364.116 338.484 348.288 332.412 332.496C326.34 316.704 320.412 300.876 314.496 285C311.604 277.056 308.652 269.124 305.904 261.132L301.704 249.132C300.252 245.16 298.944 241.14 299.304 236.52L300.732 236.04Z" fill="white"/>
    <path d="M300.672 235.92C304.416 238.644 306.672 242.232 308.772 245.892L315.252 256.812C319.608 264.012 323.784 271.416 328.008 278.736C336.408 293.424 344.628 308.208 352.872 322.98C361.116 337.752 369.348 352.536 377.472 367.38L389.652 389.652C393.648 397.116 397.704 404.532 401.652 412.02L401.328 412.212C396.828 405.012 392.424 397.812 387.96 390.612L374.76 368.928C365.976 354.468 357.336 339.924 348.612 325.428C339.888 310.932 331.272 296.4 322.8 281.784C318.564 274.464 314.292 267.156 310.188 259.764L303.972 248.7C301.86 245.04 299.868 241.308 299.388 236.7L300.672 235.92Z" fill="white"/>
    <path d="M300.588 235.812C304.752 237.84 307.584 240.984 310.308 244.212L318.576 253.812C324.12 260.196 329.52 266.712 334.956 273.192C345.756 286.2 356.436 299.34 367.128 312.456C377.82 325.572 388.476 338.7 399.06 351.9L414.912 371.724C420.156 378.372 425.436 384.924 430.632 391.656L430.344 391.896C424.668 385.62 419.076 379.272 413.436 372.96L396.636 353.904C385.464 341.196 374.436 328.368 363.324 315.6C352.212 302.832 341.22 290.052 330.288 277.2C324.852 270.72 319.368 264.288 314.04 257.712L306 247.896C303.288 244.656 300.684 241.32 299.412 236.868L300.588 235.812Z" fill="white"/>
    <path d="M300.492 235.716C304.956 236.988 308.28 239.592 311.52 242.316L321.336 250.356C327.912 255.684 334.356 261.156 340.836 266.604C353.736 277.536 366.528 288.612 379.332 299.676C392.136 310.74 404.916 321.816 417.636 332.976L436.692 349.776C443.004 355.416 449.352 361.008 455.628 366.684L455.388 366.972C448.704 361.776 442.092 356.496 435.444 351.264L415.632 335.4C402.432 324.828 389.328 314.112 376.176 303.468C363.024 292.824 349.932 282.108 336.924 271.296C330.444 265.86 323.928 260.496 317.532 254.928L307.932 246.648C304.692 243.936 301.548 241.104 299.532 236.94L300.492 235.716Z" fill="white"/>
    <path d="M300.384 235.644C304.992 236.124 308.724 238.044 312.384 240.228L323.436 246.432C330.84 250.536 338.136 254.832 345.456 259.044C360.072 267.576 374.592 276.264 389.112 284.94C403.632 293.616 418.164 302.292 432.624 311.088L454.296 324.288C461.496 328.74 468.696 333.144 475.896 337.644L475.704 337.968C468.228 334.02 460.8 329.964 453.348 325.968L431.076 313.8C416.232 305.676 401.472 297.396 386.676 289.2C371.88 281.004 357.12 272.724 342.432 264.336C335.1 260.1 327.744 255.936 320.496 251.568L309.6 245.088C305.928 242.976 302.34 240.732 299.628 236.976L300.384 235.644Z" fill="white"/>
    <path d="M300.264 235.584C304.884 235.26 308.904 236.568 312.888 237.984L324.888 242.184C332.892 244.944 340.824 247.884 348.768 250.776C364.632 256.644 380.436 262.68 396.252 268.692C412.068 274.704 427.872 280.692 443.64 286.896L467.28 296.136C475.14 299.268 483.012 302.352 490.86 305.544L490.728 305.892C482.676 303.3 474.66 300.588 466.62 297.948L442.62 289.824C426.588 284.4 410.628 278.808 394.62 273.312C378.612 267.816 362.652 262.212 346.728 256.512C338.784 253.608 330.816 250.776 322.92 247.74L311.04 243.264C307.068 241.824 303.144 240.228 299.82 237.012L300.264 235.584Z" fill="white"/>
    <path d="M300.132 235.548C304.632 234.42 308.82 235.008 312.984 235.752L325.5 237.804C333.9 239.136 342.18 240.66 350.508 242.124C367.152 245.148 383.772 248.34 400.38 251.52C416.988 254.7 433.608 257.892 450.204 261.216L475.092 266.208C483.372 267.924 491.676 269.592 499.944 271.38L499.884 271.74C491.484 270.54 483.084 269.34 474.756 268.14L449.664 264.324C432.936 261.756 416.244 259.032 399.528 256.392C382.812 253.752 366.12 251.016 349.452 248.16C341.124 246.684 332.784 245.28 324.48 243.66L312.012 241.26C307.836 240.528 303.708 239.64 299.868 237.048L300.132 235.548Z" fill="white"/>
    <path d="M300 235.536C304.224 233.652 308.46 233.496 312.684 233.508L325.38 233.352C333.78 233.208 342.288 233.268 350.748 233.268C367.668 233.352 384.588 233.616 401.496 233.856C418.404 234.096 435.336 234.372 452.244 234.756L477.624 235.344C486.084 235.608 494.544 235.812 503.004 236.124V236.496C494.544 236.808 486.084 237.012 477.624 237.276L452.244 237.864C435.336 238.26 418.416 238.464 401.496 238.764C384.576 239.064 367.668 239.268 350.748 239.352C342.288 239.352 333.828 239.352 325.38 239.268L312.684 239.124C308.46 239.124 304.284 238.968 300 237.084V235.536Z" fill="white"/>
    <path d="M299.868 235.548C303.708 232.956 307.836 232.08 312.012 231.336L324.48 228.996C332.784 227.376 341.124 225.972 349.452 224.496C366.12 221.64 382.824 218.964 399.528 216.264C416.232 213.564 432.936 210.9 449.664 208.344L474.756 204.516C483.156 203.316 491.496 202.032 499.884 200.916L499.944 201.276C491.676 203.064 483.372 204.732 475.092 206.448L450.204 211.44C433.608 214.764 416.988 217.896 400.38 221.136C383.772 224.376 367.152 227.52 350.508 230.532C342.18 231.996 333.852 233.52 325.5 234.852L312.984 236.904C308.82 237.648 304.584 238.236 300.132 237.108L299.868 235.548Z" fill="white"/>
    <path d="M299.736 235.584C303.06 232.368 306.936 230.784 310.956 229.332L322.836 224.856C330.732 221.82 338.7 218.988 346.644 216.096C362.568 210.384 378.564 204.852 394.536 199.296C410.508 193.74 426.504 188.208 442.536 182.784L466.536 174.66C474.576 172.02 482.592 169.308 490.644 166.716L490.776 167.064C482.928 170.256 475.056 173.34 467.196 176.484L443.556 185.712C427.788 191.868 411.96 197.844 396.168 203.916C380.376 209.988 364.548 215.916 348.684 221.832C340.74 224.724 332.808 227.664 324.804 230.424L312.804 234.624C308.82 236.064 304.8 237.372 300.18 237.024L299.736 235.584Z" fill="white"/>
    <path d="M299.616 235.644C302.328 231.888 305.916 229.644 309.588 227.532L320.496 221.064C327.696 216.708 335.1 212.532 342.432 208.296C357.12 199.896 371.904 191.688 386.676 183.432C401.448 175.176 416.232 166.956 431.076 158.832L453.348 146.664C460.8 142.656 468.228 138.6 475.704 134.664L475.896 134.988C468.696 139.488 461.496 143.892 454.296 148.344L432.624 161.544C418.224 170.34 403.608 178.98 389.112 187.704C374.616 196.428 360.072 205.056 345.456 213.588C338.136 217.812 330.84 222.096 323.436 226.2L312.384 232.416C308.712 234.528 304.98 236.508 300.384 236.988L299.616 235.644Z" fill="white"/>
    <path d="M299.496 235.716C301.524 231.552 304.668 228.72 307.896 226.008L317.496 217.74C323.892 212.184 330.408 206.796 336.888 201.36C349.896 190.56 363.024 179.88 376.14 169.188C389.256 158.496 402.384 147.828 415.596 137.256L435.408 121.392C442.056 116.16 448.668 110.88 455.352 105.684L455.592 105.972C449.316 111.648 442.968 117.24 436.656 122.88L417.6 139.68C404.88 150.84 392.052 161.88 379.296 172.98C366.54 184.08 353.736 195.084 340.8 206.028C334.32 211.464 327.876 216.936 321.3 222.264L311.484 230.304C308.244 233.028 304.92 235.632 300.456 236.904L299.496 235.716Z" fill="white"/>
    <path d="M299.412 235.812C300.684 231.36 303.288 228.024 306 224.784L314.04 214.968C319.368 208.404 324.84 201.96 330.288 195.48C341.22 182.568 352.296 169.788 363.36 156.984C374.424 144.18 385.5 131.388 396.672 118.68L413.472 99.624C419.112 93.312 424.704 86.964 430.38 80.688L430.668 80.928C425.472 87.612 420.192 94.212 414.948 100.86L399.096 120.684C388.512 133.884 377.796 146.976 367.164 160.14C356.532 173.304 345.804 186.384 334.992 199.392C329.556 205.872 324.192 212.388 318.612 218.772L310.344 228.372C307.62 231.612 304.788 234.756 300.624 236.772L299.412 235.812Z" fill="white"/>
    <path d="M299.328 235.92C299.808 231.312 301.8 227.58 303.912 223.92L310.128 212.856C314.232 205.464 318.528 198.168 322.74 190.836C331.272 176.232 339.96 161.712 348.624 147.18C357.288 132.648 366 118.14 374.772 103.68L387.972 81.996C392.436 74.796 396.84 67.596 401.34 60.396L401.664 60.576C397.704 68.064 393.648 75.492 389.664 82.944L377.472 105.24C369.348 120.084 361.068 134.832 352.872 149.64C344.676 164.448 336.396 179.196 328.008 193.884C323.784 201.204 319.608 208.56 315.252 215.808L308.772 226.728C306.66 230.388 304.416 233.928 300.672 236.7L299.328 235.92Z" fill="white"/>
    <path d="M299.268 236.04C298.944 231.432 300.252 227.4 301.668 223.428L305.868 211.428C308.616 203.436 311.568 195.504 314.46 187.56C320.4 171.708 326.4 155.904 332.4 140.088C338.4 124.272 344.4 108.48 350.592 92.7122L359.832 69.0722C362.964 61.2122 366.048 53.3282 369.24 45.4922L369.6 45.6242C366.996 53.6762 364.296 61.6922 361.644 69.7322L353.52 93.7322C348.096 109.752 342.504 125.724 337.008 141.732C331.512 157.74 325.92 173.7 320.208 189.624C317.316 197.58 314.472 205.548 311.448 213.444L306.972 225.312C305.52 229.284 303.936 233.208 300.72 236.544L299.268 236.04Z" fill="white"/>
    <path d="M299.232 236.172C298.116 231.684 298.704 227.496 299.436 223.332L301.5 210.804C302.82 202.404 304.344 194.136 305.808 185.808C308.832 169.164 312.036 152.544 315.204 135.924C318.372 119.304 321.588 102.696 324.9 86.1001L329.892 61.2001C331.62 52.9201 333.288 44.6281 335.064 36.3481L335.436 36.4201C334.236 44.8201 333.036 53.2201 331.836 61.5361L327.972 86.6401C325.416 103.368 322.68 120.072 320.04 136.776C317.4 153.48 314.664 170.184 311.808 186.864C310.344 195.192 308.928 203.532 307.32 211.836L304.92 224.304C304.188 228.468 303.312 232.608 300.72 236.448L299.232 236.172Z" fill="white"/>
    </g>
    <path d="M286.56 61.5721C291.807 66.9209 294.812 74.0727 294.96 81.5641L294.84 84.9361C294.161 92.3206 290.726 99.1784 285.218 104.144C279.71 109.109 272.534 111.818 265.119 111.73C257.704 111.642 250.594 108.765 245.205 103.67C239.816 98.5758 236.544 91.6386 236.04 84.2401V80.8681C236.305 75.1323 238.238 69.5985 241.602 64.9455C244.967 60.2925 249.616 56.7227 254.98 54.6739C260.344 52.6252 266.19 52.1865 271.799 53.4119C277.409 54.6373 282.539 57.4733 286.56 61.5721V61.5721Z" fill="white"/>
    <path d="M243.024 59.3282C237.184 64.9243 233.679 72.5234 233.212 80.5982C232.746 88.6731 235.353 96.6252 240.51 102.856C245.666 109.088 252.991 113.136 261.01 114.188C269.03 115.241 277.15 113.218 283.74 108.528L292.8 112.572C293.139 112.721 293.514 112.765 293.878 112.699C294.242 112.634 294.578 112.461 294.843 112.204C295.108 111.946 295.291 111.615 295.367 111.253C295.444 110.891 295.411 110.515 295.272 110.172L291.348 101.028C296.074 94.5322 298.185 86.4969 297.262 78.5169C296.34 70.5369 292.451 63.1953 286.368 57.9488C280.284 52.7024 272.451 49.9346 264.422 50.1945C256.393 50.4545 248.755 53.7232 243.024 59.3522V59.3282ZM286.536 61.5242C291.774 66.8742 294.778 74.0185 294.936 81.5042L294.816 84.8882C294.149 92.2725 290.726 99.1348 285.227 104.109C279.729 109.083 272.559 111.803 265.145 111.729C257.731 111.655 250.617 108.792 245.219 103.709C239.821 98.6257 236.535 91.6964 236.016 84.3002V80.9162C236.26 75.1649 238.181 69.6105 241.542 64.9372C244.903 60.2638 249.557 56.6755 254.932 54.6144C260.307 52.5532 266.167 52.1092 271.791 53.3369C277.415 54.5647 282.557 57.4106 286.584 61.5242H286.536Z" fill="#E0E0E0"/>
    <path d="M261.108 99.6002C260.494 99.6015 259.886 99.4764 259.323 99.2328C258.759 98.9892 258.252 98.6323 257.832 98.1842L247.668 87.3842C247.231 86.9617 246.884 86.4548 246.649 85.8942C246.413 85.3336 246.294 84.731 246.299 84.123C246.304 83.5151 246.432 82.9144 246.675 82.3574C246.919 81.8004 247.274 81.2988 247.717 80.8829C248.161 80.4671 248.684 80.1457 249.256 79.9382C249.827 79.7308 250.435 79.6416 251.042 79.6761C251.649 79.7107 252.242 79.8682 252.787 80.1391C253.331 80.41 253.815 80.7887 254.208 81.2522L260.82 88.3082L276.42 68.5082C276.786 68.0457 277.239 67.6597 277.754 67.3723C278.268 67.0849 278.835 66.9017 279.42 66.8332C280.006 66.7646 280.599 66.8121 281.166 66.9729C281.734 67.1337 282.264 67.4046 282.726 67.7702C283.189 68.1358 283.575 68.5889 283.862 69.1037C284.149 69.6184 284.333 70.1848 284.401 70.7703C284.47 71.3559 284.422 71.9492 284.261 72.5165C284.101 73.0837 283.83 73.6137 283.464 74.0762L264.612 97.9562C264.208 98.4492 263.704 98.8507 263.133 99.1341C262.562 99.4175 261.937 99.5764 261.3 99.6002H261.108Z" fill="#1DBF73"/>
    <path d="M296.556 497.484L292.164 495.168L296.592 494.052L296.556 497.484Z" fill="#263238"/>
    <path d="M252.144 504.588C252.144 504.588 305.352 482.088 305.916 485.676C306.029 486.391 306.001 487.121 305.832 487.824L305.976 487.632L304.836 494.256C302.447 496.112 299.571 497.234 296.556 497.484C296.556 497.172 296.556 495.192 296.556 494.052C294.915 494.7 293.34 495.504 291.852 496.452C288.42 498.612 286.152 502.452 282.456 506.94C279.756 510.204 275.064 511.632 268.152 512.436C260.712 513.3 254.22 511.692 252.432 509.64C251.052 507.96 251.856 505.044 252.144 504.588Z" fill="#263238"/>
    <path d="M253.62 503.4C254.148 502.872 256.02 500.844 258.672 498.6C261.153 496.367 263.744 494.26 266.436 492.288C267.802 491.394 269.087 490.382 270.276 489.264C271.227 488.302 272.128 487.293 272.976 486.24C275.573 482.938 277.798 479.361 279.612 475.572C280.488 473.784 282.084 469.848 281.844 462.468C281.496 451.272 280.644 447.216 280.848 439.956L305.844 444.048C305.004 448.056 303.984 457.02 303.444 461.592C302.676 468.528 301.644 469.164 304.152 476.184C304.896 478.248 306.036 480.24 306.072 482.436C306.156 486.036 303.288 489 300.072 490.656C297.456 492.036 294.48 492.576 291.936 494.052C289.339 495.736 287.064 497.869 285.216 500.352C283.392 502.584 281.904 505.236 279.372 506.772C276.704 508.255 273.767 509.19 270.732 509.52C266.916 510.101 263.041 510.198 259.2 509.808C253.848 509.28 249.84 507.18 253.62 503.4Z" fill="#B16668"/>
    <path d="M274.44 493.044C273.232 492.31 271.88 491.844 270.477 491.679C269.073 491.513 267.65 491.651 266.304 492.084C262.344 495.072 259.104 497.724 256.704 499.584C253.896 501.84 251.424 503.904 251.46 506.568C251.46 510.756 267.624 512.436 276.756 508.716C279.561 507.825 281.905 505.869 283.284 503.268C283.284 503.268 282.144 497.376 274.44 493.044ZM305.532 478.8C304.224 476.076 303.732 474.696 303.732 474.696C300.552 476.328 294.888 484.068 297.18 492.072C298.81 491.806 300.368 491.206 301.756 490.31C303.143 489.414 304.331 488.241 305.244 486.864C306.046 485.683 306.499 484.3 306.55 482.874C306.601 481.447 306.248 480.035 305.532 478.8Z" fill="#37474F"/>
    <path d="M349.2 487.992C347.724 490.392 349.74 499.404 349.464 505.836C349.212 511.68 348.096 520.788 349.596 527.616C351.096 534.444 357.024 542.016 364.992 535.488C369.936 531.468 371.904 526.668 372.504 518.256C372.924 512.412 370.512 504.36 368.448 497.22C366.048 488.82 365.1 484.404 365.1 484.404L349.2 487.992Z" fill="#263238"/>
    <path d="M365.304 444.78C366.012 458.4 364.512 467.964 364.5 476.688C364.572 480.643 365.026 484.581 365.856 488.448C367.056 494.004 369.06 501.72 369.912 505.32C371.112 510.348 372 513.516 370.308 519.18C370.164 519.624 369.979 520.054 369.756 520.464C367.356 525.144 361.212 528.72 359.232 528.168C358.83 528.679 358.289 529.064 357.674 529.277C357.059 529.49 356.396 529.521 355.764 529.368C355.54 529.339 355.32 529.291 355.104 529.224C354.874 529.152 354.65 529.064 354.432 528.96C353.616 528.518 352.9 527.913 352.328 527.182C351.756 526.452 351.341 525.611 351.108 524.712C350.973 524.319 350.861 523.918 350.772 523.512C349.272 516.516 350.268 511.968 350.388 509.232C350.508 506.064 350.292 502.032 349.956 496.932C349.62 491.832 348.264 475.788 346.416 468.132C345.048 462.792 343.344 456.132 341.544 448.932L365.304 444.78Z" fill="#B16668"/>
    <path d="M371.184 511.872C366.288 509.76 352.152 509.592 349.956 516.492C349.956 522.972 349.956 527.364 354.108 532.968C359.616 540.408 366.636 532.404 369.312 527.328C371.988 522.252 371.88 515.352 371.184 511.872Z" fill="#37474F"/>
    <path d="M343.824 252.912C350.82 265.188 360.252 282.252 360.852 309.9C361.656 346.8 362.16 373.2 362.4 377.592C362.64 381.984 365.556 390.144 368.196 411.996C370.836 433.848 367.272 475.596 367.272 475.596C367.272 475.596 364.8 480.48 356.4 481.38C348.696 482.196 345.12 478.548 345.12 478.548C345.12 478.548 333.528 420.024 330.384 406.884C327.24 393.744 316.62 336.336 316.62 336.336L311.82 379.164C311.82 379.164 314.4 391.2 312.36 410.4C310.32 429.6 303.852 466.8 303.852 466.8C303.852 466.8 300.324 470.4 292.128 470.04C287.948 469.983 283.943 468.355 280.908 465.48C280.908 465.48 274.488 392.112 274.128 370.356C273.768 348.6 275.244 286.716 281.544 254.4L343.824 252.912Z" fill="#37474F"/>
    <path d="M288.36 293.808C290.964 302.652 301.56 307.884 306.84 309.048L312.348 338.088L311.832 379.2L316.632 336.372L311.508 305.4C311.508 305.4 295.104 303.3 288.36 293.808ZM341.736 398.76C339.6 387.504 336.936 361.884 335.388 350.484C333.84 339.084 332.46 327.684 330.84 316.248C331.56 327.744 332.424 339.228 333.588 350.688C334.752 362.148 337.356 387.828 339.456 399.192C341.556 410.556 343.956 421.764 346.356 433.032C348.756 444.3 351.24 455.52 353.904 466.728C352.128 455.352 350.204 444.004 348.132 432.684C346.104 421.356 343.92 410.016 341.736 398.76V398.76ZM283.92 346.296L285.288 316.296C283.896 326.232 282.84 336.196 282.12 346.188C281.388 356.208 280.392 373.788 280.524 383.904C281.028 393.996 281.964 403.944 282.924 413.904C283.884 423.864 285.084 433.836 286.428 443.784C285.98 433.76 285.416 423.76 284.736 413.784L283.728 398.784C283.392 393.804 282.996 388.788 282.816 383.832C282.636 378.876 283.176 366.288 283.32 361.296C283.464 356.304 283.728 351.3 283.92 346.296Z" fill="#263238"/>
    <path d="M222.756 266.088C220.2 265.267 217.6 264.59 214.968 264.06C212.976 263.616 211.776 264.372 206.892 266.88C201.816 269.484 200.892 270.72 200.4 272.244C200.185 272.908 200.186 273.623 200.401 274.286C200.617 274.95 201.036 275.529 201.6 275.94C200.004 276.876 200.064 279.768 202.26 280.872C201.957 281.184 201.736 281.565 201.616 281.983C201.496 282.401 201.481 282.842 201.572 283.267C201.663 283.692 201.858 284.088 202.14 284.42C202.421 284.751 202.78 285.008 203.184 285.168C202.392 286.008 202.644 289.32 205.584 290.148C208.134 290.759 210.725 291.185 213.336 291.42L222.756 266.088Z" fill="#9A4A4D"/>
    <path d="M236.688 490.044L192.444 91.8122L195.828 91.4282L240.084 489.696C240.18 491.04 236.808 491.352 236.688 490.044Z" fill="#455A64"/>
    <path d="M196.2 94.7041C211.872 98.4481 222.84 107.184 232.056 129.228C238.596 144.828 251.04 162.708 262.284 162.936L255.984 214.92C255.984 214.92 241.764 214.92 229.128 202.068C216.492 189.216 214.728 166.656 204.096 165.756C202.464 151.164 199.02 120.156 199.02 120.156L196.2 94.7041Z" fill="#1DBF73"/>
    <path opacity="0.15" d="M238.476 180C238.248 179.604 238.128 179.172 237.912 178.8C237.696 178.428 237.456 178.176 237.252 177.876C236.832 177.276 236.388 176.676 235.956 176.076C235.164 174.972 234.396 173.832 233.664 172.68C232.188 170.365 230.858 167.961 229.68 165.48C227.176 160.036 225.32 154.317 224.148 148.44C223.491 145.177 223.09 141.867 222.948 138.54C222.948 138.384 222.744 138.336 222.744 138.54C222.515 144.483 223.187 150.426 224.736 156.168C226.305 161.838 228.638 167.268 231.672 172.308C232.5 173.688 233.376 175.032 234.312 176.328C234.768 176.976 235.248 177.6 235.74 178.224C236.04 178.584 236.34 178.956 236.664 179.292C236.988 179.628 237.612 180.024 238.056 180.42C238.112 180.476 238.187 180.507 238.266 180.507C238.345 180.507 238.42 180.476 238.476 180.42C238.532 180.365 238.563 180.289 238.563 180.21C238.563 180.132 238.532 180.056 238.476 180Z" fill="black"/>
    <path opacity="0.1" d="M218.484 171.432C214.212 159.432 208.548 155.268 205.212 141.252C201.876 127.236 196.2 94.7041 196.2 94.7041L199.02 120.12C199.02 120.12 202.464 151.164 204.096 165.72C214.752 166.62 216.408 189.096 229.128 202.032C241.848 214.968 255.984 214.884 255.984 214.884C250.944 213.924 244.476 212.976 233.784 202.764C226.092 195.456 222.756 183.444 218.484 171.432Z" fill="black"/>
    <path d="M213.36 291.42C214.32 291.42 215.604 289.956 216.528 289.02C217.452 288.084 218.64 286.836 218.568 285.96C218.484 284.76 216.756 284.652 216.756 284.652C217.071 284.442 217.365 284.201 217.632 283.932C218.76 282.912 216.828 281.412 215.064 282C215.064 282 215.82 281.58 215.856 281.088C215.857 280.78 215.794 280.474 215.672 280.19C215.549 279.907 215.37 279.651 215.145 279.44C214.92 279.228 214.654 279.065 214.364 278.961C214.073 278.856 213.764 278.813 213.456 278.832C214.716 278.256 214.332 276.492 213.528 275.112H212.592C211.296 279.984 211.74 285.504 213.36 291.42Z" fill="#9A4A4D"/>
    <path opacity="0.3" d="M203.196 285.168C204.32 285.616 205.475 285.981 206.652 286.26C207.852 286.56 209.052 286.872 210.18 287.052C211.357 287.192 212.547 286.939 213.564 286.332C214.644 285.816 215.712 285.228 216.756 284.604C215.809 285.378 214.788 286.057 213.708 286.632C212.644 287.327 211.371 287.629 210.108 287.484C208.888 287.271 207.685 286.97 206.508 286.584C205.355 286.237 204.244 285.762 203.196 285.168V285.168Z" fill="black"/>
    <path opacity="0.3" d="M215.064 282C214.054 282.486 213.017 282.911 211.956 283.272C211.403 283.456 210.822 283.537 210.24 283.512C209.681 283.418 209.128 283.29 208.584 283.128C206.443 282.502 204.336 281.765 202.272 280.92C204.444 281.436 206.568 282.12 208.704 282.696C209.223 282.868 209.752 283.009 210.288 283.116C210.818 283.144 211.35 283.083 211.86 282.936C212.928 282.624 213.984 282.252 215.064 282Z" fill="black"/>
    <path opacity="0.3" d="M213.504 278.784C212.531 279.229 211.464 279.427 210.396 279.36C209.364 279.132 208.353 278.819 207.372 278.424C205.409 277.713 203.482 276.904 201.6 276C203.604 276.6 205.548 277.356 207.516 278.076C208.472 278.471 209.45 278.812 210.444 279.096C211.475 279.189 212.514 279.083 213.504 278.784V278.784Z" fill="black"/>
    <path d="M197.844 91.9682C197.769 92.7096 197.476 93.4121 197.002 93.9869C196.528 94.5618 195.894 94.9831 195.18 95.1977C194.467 95.4123 193.705 95.4104 192.993 95.1925C192.28 94.9745 191.648 94.5501 191.177 93.973C190.706 93.3959 190.416 92.692 190.344 91.9503C190.273 91.2086 190.423 90.4623 190.776 89.8059C191.129 89.1495 191.668 88.6124 192.326 88.2625C192.984 87.9126 193.731 87.7657 194.472 87.8402C194.965 87.8882 195.444 88.0332 195.881 88.267C196.318 88.5008 196.704 88.8187 197.017 89.2024C197.331 89.5861 197.565 90.028 197.707 90.5027C197.849 90.9774 197.895 91.4754 197.844 91.9682V91.9682Z" fill="#37474F"/>
    <path d="M256.38 275.004C256.38 275.004 243.624 279.804 235.464 282.9C229.224 285.3 229.128 286.2 227.064 288.264C224.736 290.568 218.028 290.892 218.028 290.892L217.68 287.76C218.195 287.281 218.522 286.634 218.604 285.936C218.552 285.637 218.409 285.361 218.194 285.146C217.979 284.932 217.703 284.788 217.404 284.736L217.344 284.268L217.74 283.932C218.412 283.296 217.968 282.504 217.104 282.108L216.804 279.468C215.842 278.533 214.981 277.5 214.236 276.384V276.384C214.01 275.984 213.825 275.562 213.684 275.124C213.424 275.11 213.164 275.11 212.904 275.124C211.382 275.151 209.891 275.564 208.572 276.324C207.468 278.22 205.776 280.512 203.016 280.452C200.76 280.38 200.784 279.336 201.948 277.068C203.496 273.936 204.048 272.424 205.284 270.864C206.124 269.796 209.388 268.32 212.028 267.264C213.228 266.772 214.356 266.364 215.016 266.064C215.117 266.021 215.222 265.985 215.328 265.956C217.224 265.308 218.856 265.428 222.36 266.016C224.581 266.521 226.899 266.384 229.044 265.62C230.892 265.128 240.612 259.896 240.612 259.896L256.38 275.004Z" fill="#B16668"/>
    <path d="M226.188 283.2C223.43 283.797 220.565 283.669 217.872 282.828C217.69 282.467 217.383 282.186 217.008 282.036L216.708 279.396C218.604 282.096 222.672 283.32 226.188 283.2Z" fill="#9A4A4D"/>
    <path d="M237.6 261.24L232.416 263.736C233.938 264.589 235.267 265.747 236.322 267.136C237.377 268.526 238.135 270.117 238.548 271.812C239.235 275.073 239.437 278.417 239.148 281.736L245.148 279.636C245.385 276.235 244.978 272.819 243.948 269.568C242.623 266.27 240.429 263.392 237.6 261.24Z" fill="#FAFAFA"/>
    <path d="M288.96 190.8C277.344 192.564 274.176 200.328 266.988 221.4C260.904 239.208 258 247.32 258 247.32L235.62 261.984C235.62 261.984 244.824 264.228 243.456 280.38C243.456 280.38 255.612 276.144 269.856 271.14C277.68 268.368 277.644 264.516 281.136 256.404C285.132 247.116 290.256 229.656 290.256 229.656L288.96 190.8Z" fill="#1DBF73"/>
    <path d="M352.692 269.088C354.864 265.392 346.692 254.016 347.7 243.54C348.336 236.88 353.424 222.984 353.424 222.984C348.709 216.898 345.253 209.934 343.257 202.499C341.261 195.064 340.764 187.305 341.796 179.676L325.848 183.048L301.404 187.848L291.804 190.476C288.516 193.308 282.492 197.76 277.656 204.6C270.66 214.476 270.696 227.196 277.836 235.308C277.908 236.892 278.784 258.72 277.992 267.564C277.776 270.024 276.276 273.132 277.812 276.3C284.7 287.616 329.4 293.676 352.692 269.088Z" fill="#FAFAFA"/>
    <path d="M296.94 120C298.43 120.079 299.925 119.982 301.392 119.712C304.08 119.112 305.112 118.104 306.888 116.004C310.668 111.552 317.628 111.756 321.804 115.596C323.232 116.796 324.744 118.548 326.604 118.188C327.612 117.996 328.8 117.096 330.612 116.556C332.002 116.211 333.462 116.283 334.811 116.763C336.16 117.243 337.337 118.11 338.196 119.256C339.06 120.696 338.892 122.532 339.012 124.212C339.029 125.032 339.273 125.831 339.718 126.52C340.163 127.209 340.791 127.76 341.532 128.112C341.904 128.244 342.301 128.291 342.694 128.25C343.087 128.208 343.466 128.079 343.802 127.872C344.138 127.664 344.424 127.384 344.637 127.052C344.851 126.72 344.987 126.344 345.036 125.952C346.872 127.008 347.016 129.972 345.732 131.688C345.041 132.485 344.188 133.126 343.23 133.569C342.272 134.011 341.231 134.246 340.176 134.256C344.028 134.256 348.084 137.856 346.944 142.092C346.428 143.952 344.88 145.464 344.82 147.408C344.724 149.808 346.812 151.98 347.22 154.356C347.592 156.356 347.217 158.423 346.164 160.164C345.353 161.145 344.343 161.943 343.2 162.504C342.433 162.843 341.724 163.3 341.1 163.86C340.643 164.371 340.274 164.955 340.008 165.588C339.036 167.64 338.172 169.848 336.408 171.348C334.176 173.292 330.984 173.604 328.008 173.604C325.032 173.604 322.008 173.4 319.248 174.588C318.001 175.188 316.816 175.907 315.708 176.736C312.108 179.136 307.656 181.224 303.516 179.88C301.62 179.268 300.012 177.996 298.176 177.192C296.664 176.528 295.027 176.197 293.376 176.22C291.636 176.22 290.052 176.88 288.348 176.94C287.279 176.949 286.222 176.709 285.261 176.238C284.301 175.767 283.464 175.079 282.816 174.228C281.536 172.504 280.941 170.366 281.148 168.228C280.186 168.857 279.415 169.738 278.918 170.775C278.421 171.811 278.217 172.964 278.328 174.108C276.97 172.853 276.049 171.196 275.702 169.38C275.354 167.564 275.597 165.684 276.396 164.016C277.2 162.432 278.496 161.124 279.288 159.528C280.764 156.6 279.012 153.528 277.68 150.876C276.108 147.792 275.028 143.892 276.96 141.024C278.892 138.156 282.684 137.544 284.352 134.736C285.432 132.936 285.324 130.692 285.648 128.616C286.164 125.16 288.204 121.704 291.492 120.564C293.26 120.054 295.105 119.863 296.94 120V120Z" fill="#263238"/>
    <path d="M297.12 168.516C296.016 168.901 294.826 168.969 293.685 168.712C292.544 168.455 291.497 167.885 290.664 167.064C286.548 163.608 286.176 159.228 287.484 156.336C288.564 153.936 290.496 152.736 293.832 153.132C296.82 153.516 297.432 154.908 298.632 156.576C299.832 158.244 303.732 157.56 301.944 150.468C306.552 147.492 302.412 140.544 304.62 136.824C308.076 131.004 315.12 131.448 317.508 132.396C318.73 131.261 320.243 130.487 321.879 130.161C323.514 129.835 325.208 129.969 326.772 130.548C330.312 131.88 333.012 135.348 335.892 147.96C338.832 160.848 337.488 170.64 334.848 173.808C333.024 175.992 330.216 177.66 325.596 178.008L325.992 186.072C325.992 186.072 321.384 197.928 305.664 198.72C294.744 199.272 301.392 187.92 301.392 187.92L299.412 166.32C299.412 166.32 299.592 167.7 297.12 168.516Z" fill="#B16668"/>
    <path d="M313.692 142.38L309.6 145.668C309.169 145.105 308.972 144.398 309.051 143.694C309.129 142.989 309.476 142.342 310.02 141.888C310.289 141.668 310.6 141.505 310.934 141.41C311.268 141.315 311.619 141.289 311.963 141.335C312.308 141.382 312.639 141.498 312.936 141.678C313.234 141.858 313.491 142.097 313.692 142.38V142.38Z" fill="#263238"/>
    <path d="M331.872 142.26L326.796 140.916C326.864 140.58 327.001 140.261 327.198 139.979C327.395 139.697 327.647 139.459 327.94 139.279C328.232 139.099 328.558 138.981 328.898 138.933C329.238 138.884 329.585 138.906 329.916 138.996C330.599 139.185 331.182 139.63 331.547 140.237C331.911 140.845 332.027 141.569 331.872 142.26V142.26Z" fill="#263238"/>
    <path d="M316.608 162.936L324.024 163.896C323.986 164.382 323.849 164.855 323.623 165.286C323.396 165.718 323.084 166.099 322.706 166.406C322.328 166.714 321.892 166.941 321.423 167.075C320.954 167.208 320.463 167.246 319.98 167.184C318.982 167.041 318.076 166.521 317.449 165.731C316.822 164.941 316.521 163.941 316.608 162.936V162.936Z" fill="#9A4A4D"/>
    <path d="M321.396 167.088C321.156 166.252 320.64 165.521 319.932 165.016C319.224 164.51 318.365 164.259 317.496 164.304C317.249 164.319 317.004 164.36 316.764 164.424C316.981 165.143 317.399 165.785 317.969 166.274C318.539 166.763 319.237 167.079 319.98 167.184C320.454 167.243 320.935 167.211 321.396 167.088V167.088Z" fill="#F28F8F"/>
    <path d="M331.98 146.268C332.18 146.636 332.267 147.055 332.229 147.473C332.191 147.89 332.031 148.287 331.768 148.613C331.506 148.94 331.153 149.181 330.753 149.307C330.354 149.433 329.926 149.438 329.523 149.322C329.121 149.206 328.762 148.973 328.491 148.653C328.221 148.333 328.051 147.94 328.003 147.524C327.956 147.108 328.032 146.687 328.223 146.314C328.414 145.941 328.711 145.633 329.076 145.428C329.322 145.291 329.592 145.204 329.871 145.172C330.151 145.139 330.434 145.163 330.704 145.241C330.974 145.32 331.226 145.451 331.445 145.627C331.664 145.803 331.846 146.021 331.98 146.268V146.268Z" fill="#263238"/>
    <path d="M316.236 148.8C316.438 149.168 316.527 149.586 316.491 150.004C316.455 150.422 316.296 150.819 316.035 151.147C315.774 151.475 315.422 151.718 315.022 151.846C314.623 151.974 314.195 151.98 313.792 151.865C313.389 151.751 313.029 151.519 312.757 151.2C312.486 150.881 312.314 150.488 312.265 150.072C312.216 149.656 312.291 149.234 312.481 148.861C312.671 148.487 312.967 148.178 313.332 147.972C313.828 147.7 314.411 147.635 314.954 147.79C315.498 147.945 315.958 148.308 316.236 148.8V148.8Z" fill="#263238"/>
    <path d="M320.688 145.668L323.604 159.312L330.864 156.096C328.272 150.948 323.928 147.852 320.688 145.668Z" fill="#9A4A4D"/>
    <path d="M325.608 178.008C318.96 178.644 306.696 179.424 303 167.34C303.135 170.435 304.301 173.397 306.312 175.753C308.323 178.11 311.065 179.727 314.1 180.348C317.943 181.009 321.856 181.17 325.74 180.828L325.608 178.008Z" fill="#9A4A4D"/>
    <path d="M301.404 187.884L288.96 190.8C280.356 198.456 271.344 210.312 271.5 219.96C271.575 225.694 273.475 231.255 276.924 235.836C276.924 235.836 278.616 255.36 277.2 265.836C275.784 276.312 271.5 303.84 271.5 303.84C276.047 305.728 280.77 307.159 285.6 308.112C286.896 294.684 288.828 245.712 287.58 234.036C286.332 222.36 284.592 204 301.404 187.884Z" fill="#1DBF73"/>
    <path opacity="0.3" d="M301.404 187.884L288.96 190.8C280.356 198.456 271.344 210.312 271.5 219.96C271.575 225.694 273.475 231.255 276.924 235.836C276.924 235.836 278.616 255.36 277.2 265.836C275.784 276.312 271.5 303.84 271.5 303.84C276.047 305.728 280.77 307.159 285.6 308.112C286.896 294.684 288.828 245.712 287.58 234.036C286.332 222.36 284.592 204 301.404 187.884Z" fill="black"/>
    <path opacity="0.2" d="M286.536 239.58C285.528 236.544 284.448 233.58 283.368 230.532C282.288 227.484 281.232 224.532 280.224 221.508C279.724 220.016 279.323 218.493 279.024 216.948C278.676 215.508 279.612 214.212 280.56 212.976C282.594 210.571 284.888 208.397 287.4 206.496L287.64 206.304L287.556 206.028C287.157 204.372 287.028 202.662 287.172 200.964C287.315 199.259 287.784 197.597 288.552 196.068C289.416 194.575 290.528 193.24 291.84 192.12C293.16 190.969 294.6 189.963 296.136 189.12C294.526 189.845 293.011 190.764 291.624 191.856C290.184 192.921 288.962 194.254 288.024 195.78C287.151 197.361 286.596 199.098 286.392 200.892C286.17 202.689 286.28 204.511 286.716 206.268L286.86 205.8C284.253 207.719 281.877 209.934 279.78 212.4C279.257 213.046 278.81 213.751 278.448 214.5C278.353 214.696 278.276 214.901 278.22 215.112C278.132 215.322 278.079 215.545 278.064 215.772C278.017 216.217 278.037 216.666 278.124 217.104C278.461 218.685 278.906 220.241 279.456 221.76C280.476 224.808 281.7 227.76 282.876 230.724C284.052 233.688 285.3 236.628 286.536 239.58Z" fill="black"/>
    <path d="M325.92 182.208C325.92 182.208 322.32 187.68 317.976 200.208C313.632 212.736 309.396 224.208 310.38 235.428C311.364 246.648 314.268 309.408 314.268 309.408C314.268 309.408 334.344 309.48 348.48 303.504L346.452 284.568L351.96 301.872C351.96 301.872 361.14 298.008 363.54 295.464C358.428 269.952 349.812 257.28 348.696 248.664C347.94 242.748 353.256 230.94 356.508 216.396C359.184 204.396 342.396 177.084 342.396 177.084C339.756 179.448 334.62 181.2 325.92 182.208Z" fill="#1DBF73"/>
    <path opacity="0.3" d="M325.92 182.208C325.92 182.208 322.32 187.68 317.976 200.208C313.632 212.736 309.396 224.208 310.38 235.428C311.364 246.648 314.268 309.408 314.268 309.408C314.268 309.408 334.344 309.48 348.48 303.504L346.452 284.568L351.96 301.872C351.96 301.872 361.14 298.008 363.54 295.464C358.428 269.952 349.812 257.28 348.696 248.664C347.94 242.748 353.256 230.94 356.508 216.396C359.184 204.396 342.396 177.084 342.396 177.084C339.756 179.448 334.62 181.2 325.92 182.208Z" fill="black"/>
    <path opacity="0.2" d="M312.78 238.644C313.572 235.738 314.859 232.99 316.584 230.52C318.204 227.988 320.004 225.576 321.864 223.2C322.764 222 323.712 220.8 324.648 219.6L326.064 217.836C326.304 217.524 326.544 217.248 326.784 216.9C326.852 216.814 326.912 216.721 326.964 216.624C326.964 216.48 327.072 216.324 327.12 216.18C327.15 215.925 327.15 215.667 327.12 215.412C326.733 213.859 326.079 212.386 325.188 211.056C324.372 209.76 323.496 208.512 322.56 207.288V208.044L326.796 203.016L328.896 200.496L329.412 199.86L329.676 199.536C329.816 199.386 329.934 199.217 330.024 199.032C330.106 198.693 330.106 198.339 330.024 198C330.024 197.712 329.928 197.424 329.868 197.148C329.31 195.003 328.617 192.894 327.792 190.836C326.976 188.784 326.148 186.744 325.224 184.74C325.92 186.828 326.628 188.916 327.276 191.016C327.97 193.087 328.551 195.194 329.016 197.328C329.127 197.775 329.156 198.239 329.1 198.696C329.172 198.576 329.1 198.768 328.956 198.852L328.68 199.164L328.128 199.776L325.944 202.26L321.6 207.324L321.288 207.672L321.576 208.068C322.464 209.268 323.304 210.468 324.084 211.776C324.889 212.954 325.497 214.255 325.884 215.628C325.896 215.748 325.896 215.869 325.884 215.988C325.877 216.02 325.877 216.053 325.884 216.084C325.884 216.084 325.8 216.216 325.764 216.276C325.584 216.552 325.332 216.864 325.116 217.152L323.724 218.94C322.8 220.14 321.876 221.34 320.964 222.54C319.2 224.94 317.496 227.52 315.972 230.16C315.216 231.481 314.543 232.848 313.956 234.252C313.351 235.651 312.954 237.13 312.78 238.644V238.644Z" fill="black"/>
    <path d="M396 100.476C396.492 91.7161 394.08 85.6561 394.02 83.8201C393.936 81.4201 392.916 80.7121 392.916 80.7121C392.935 80.1572 392.769 79.6117 392.446 79.1603C392.123 78.709 391.659 78.377 391.128 78.2161C390.828 76.1521 389.604 76.1881 385.68 75.0961C381.756 74.0041 377.16 72.5521 375.72 73.2001C374.28 73.8481 373.596 75.3361 373.56 78.0001C372.904 77.7824 372.204 77.7287 371.522 77.8438C370.84 77.9588 370.197 78.2391 369.648 78.6601C368.088 79.6321 367.404 80.4841 368.34 83.2561C369.276 86.0281 371.184 87.8281 371.376 90.2521C371.64 93.087 372.99 95.7099 375.144 97.5721C376.403 98.2454 377.463 99.2387 378.216 100.452C378.804 101.652 378.744 102.852 378.348 106.188C378.012 108.996 372.672 136.404 372.672 136.404L393.816 141.6C393.816 141.6 395.016 119.172 395.544 107.544C395.676 104.784 395.904 101.676 396 100.476Z" fill="#B16668"/>
    <path d="M387.348 76.512C385.704 76.092 384.036 75.792 382.38 75.444C381.504 75.264 380.64 75.072 379.764 74.904C378.981 74.6905 378.157 74.6699 377.364 74.844C376.781 75.0682 376.259 75.4278 375.842 75.893C375.425 76.3582 375.124 76.9158 374.964 77.52C374.439 78.9951 374.061 80.5185 373.836 82.068C373.627 82.8346 373.695 83.6506 374.028 84.372C374.182 84.6478 374.415 84.871 374.698 85.0122C374.981 85.1535 375.299 85.2064 375.612 85.164C375.936 85.164 375.612 84.648 375.372 84.684C374.484 84.828 374.172 83.772 374.244 83.1C374.3 82.3795 374.417 81.6651 374.592 80.964C374.818 79.7278 375.181 78.5205 375.672 77.364C375.861 76.8314 376.179 76.354 376.598 75.9748C377.017 75.5957 377.523 75.3267 378.072 75.192C378.83 75.1285 379.594 75.1975 380.328 75.396L382.476 75.792C384.072 76.08 385.68 76.44 387.276 76.656C387.42 76.692 387.42 76.524 387.348 76.512Z" fill="#9A4A4D"/>
    <path d="M387 77.9999C385.396 77.5484 383.77 77.1799 382.128 76.8959C381.335 76.7388 380.534 76.6227 379.728 76.5479C379.109 76.4864 378.488 76.6575 377.988 77.0279C377.019 78.0007 376.399 79.2663 376.224 80.6279C376.032 81.4199 375.888 82.2359 375.756 83.0279C375.582 83.8164 375.49 84.6206 375.48 85.4279C375.6 87.0119 377.34 87.7199 378.744 87.6719C379.116 87.6719 378.888 87.1559 378.588 87.1679C377.84 87.2123 377.101 86.9914 376.5 86.5439C376.251 86.2868 376.078 85.9658 375.999 85.6164C375.921 85.2671 375.941 84.9028 376.056 84.5639C376.21 83.1471 376.467 81.7434 376.824 80.3639C377.037 79.2024 377.628 78.1436 378.504 77.3519C379.046 77.0086 379.7 76.8882 380.328 77.0159C381 77.0159 381.684 77.1599 382.356 77.2559C383.927 77.4852 385.485 77.7936 387.024 78.1799C387.096 78.1559 387.084 77.9999 387 77.9999Z" fill="#9A4A4D"/>
    <path d="M382.86 79.7402C382.202 79.665 381.535 79.7305 380.904 79.9322C380.386 80.1591 379.963 80.5575 379.704 81.0602C379.075 82.4041 378.724 83.8613 378.672 85.3442C378.58 86.1047 378.536 86.8702 378.54 87.6362C378.542 87.9334 378.614 88.226 378.75 88.4906C378.885 88.7552 379.08 88.9845 379.32 89.1602C380.678 90.065 382.261 90.5721 383.892 90.6242C384.228 90.6242 384.06 90.1682 383.796 90.1562C382.925 90.1091 382.064 89.9394 381.24 89.6522C380.592 89.4122 379.488 89.0522 379.152 88.4522C379.002 88.0165 378.965 87.5501 379.044 87.0962C379.044 86.6642 379.044 86.2442 379.128 85.8122C379.192 85.0055 379.308 84.2038 379.476 83.4122C379.606 82.6238 379.883 81.8668 380.292 81.1802C380.537 80.8631 380.858 80.6124 381.224 80.451C381.591 80.2896 381.993 80.2226 382.392 80.2562C384.204 80.2562 385.992 80.4962 387.804 80.5802C386.203 80.0739 384.539 79.7912 382.86 79.7402Z" fill="#9A4A4D"/>
    <path d="M385.2 87.444C385.052 87.2243 384.883 87.0194 384.696 86.832C384.714 86.7409 384.714 86.6471 384.696 86.556C384.702 86.4561 384.702 86.3559 384.696 86.256C384.679 86.0649 384.642 85.876 384.588 85.692C384.492 85.3183 384.347 84.9592 384.156 84.624C384.156 84.552 384.072 84.624 384.084 84.72C384.239 85.0361 384.337 85.3775 384.372 85.728C384.372 85.884 384.372 86.052 384.372 86.22V86.532C384.06 86.2531 383.692 86.0444 383.292 85.92C383.184 85.92 383.22 86.088 383.292 86.124C383.584 86.2785 383.861 86.4593 384.12 86.664C384.404 86.9125 384.647 87.204 384.84 87.528C385.019 87.8065 385.157 88.1097 385.248 88.428C385.398 88.8109 385.419 89.2321 385.308 89.628C385.212 89.88 385.716 90.168 385.812 89.88C385.936 89.4896 385.936 89.0704 385.812 88.68C385.679 88.2365 385.472 87.8186 385.2 87.444V87.444Z" fill="#9A4A4D"/>
    <path d="M387.768 89.4362C387.507 89.3813 387.242 89.3491 386.976 89.3402C386.709 89.3163 386.439 89.3163 386.172 89.3402C385.591 89.406 385.022 89.5513 384.48 89.7722C383.469 90.1877 382.567 90.8279 381.84 91.6442C381.088 92.4848 380.568 93.5064 380.33 94.6088C380.093 95.7112 380.145 96.8564 380.484 97.9322C380.484 98.0282 380.604 97.9322 380.592 97.9322C380.473 96.9019 380.559 95.8583 380.846 94.8615C381.132 93.8647 381.613 92.9343 382.26 92.1242C382.92 91.3477 383.738 90.7216 384.66 90.2882C385.145 90.0713 385.646 89.8947 386.16 89.7602C386.378 89.7047 386.598 89.6606 386.82 89.6282L387.756 89.5082C387.756 89.5082 387.804 89.4482 387.768 89.4362Z" fill="#9A4A4D"/>
    <path d="M374.052 83.9279C373.37 84.1168 372.643 84.0572 372 83.7599C371.328 83.4719 370.74 83.0279 370.104 82.6919C370.104 82.6919 370.104 82.6919 370.104 82.7639C371.148 83.8679 372.72 84.8879 374.304 84.3959C374.58 84.2999 374.304 83.8439 374.052 83.9279Z" fill="#9A4A4D"/>
    <path d="M374.628 79.7519C374.558 79.3386 374.375 78.9526 374.1 78.6359C374.004 78.5159 373.932 78.5279 373.98 78.6359C374.042 78.815 374.087 78.9999 374.112 79.1879C374.202 79.7 374.262 80.2168 374.292 80.7359C374.299 80.7435 374.307 80.7496 374.317 80.7539C374.326 80.7581 374.336 80.7602 374.346 80.7602C374.356 80.7602 374.366 80.7581 374.376 80.7539C374.385 80.7496 374.393 80.7435 374.4 80.7359C374.46 80.7359 374.46 80.6519 374.532 80.6519C374.604 80.6519 374.652 80.4839 374.664 80.4119C374.677 80.3243 374.677 80.2354 374.664 80.1479C374.662 80.0152 374.65 79.8828 374.628 79.7519V79.7519Z" fill="#9A4A4D"/>
    <path d="M375.288 84.8041C375.253 84.7466 375.199 84.7032 375.136 84.6813C375.072 84.6593 375.003 84.6604 374.94 84.6841C374.299 84.9383 373.734 85.3513 373.296 85.8841C373.086 86.1391 372.913 86.4218 372.78 86.7241C372.71 86.8759 372.65 87.0323 372.6 87.1921C372.564 87.4147 372.54 87.639 372.528 87.8641C372.528 87.9241 372.6 88.0081 372.624 87.9241C372.689 87.751 372.773 87.5859 372.876 87.4321C372.948 87.2881 373.008 87.1441 373.092 87.0001C373.263 86.7149 373.46 86.4459 373.68 86.1961C374.12 85.7152 374.661 85.3381 375.264 85.0921C375.396 85.0681 375.348 84.8881 375.288 84.8041Z" fill="#9A4A4D"/>
    <path d="M376.596 113.52L377.592 107.184C379.749 109.775 382.62 111.674 385.848 112.644C389.015 113.741 392.463 113.72 395.616 112.584L395.208 119.1C391.325 119.712 387.353 119.395 383.616 118.176C378.156 116.124 376.596 113.52 376.596 113.52Z" fill="#FAFAFA"/>
    <path d="M342.564 177.012C348.252 169.98 352.992 167.664 355.872 164.088C360.564 158.256 370.212 142.488 370.212 142.488L376.8 109.764C378.504 115.764 391.896 119.484 395.592 116.472C395.592 116.472 395.112 127.98 394.392 148.584C394.128 155.676 393.348 156.984 384.18 170.472C379.848 176.856 375.504 183.732 368.58 194.4C363.564 202.104 358.98 209.28 356.424 216.912C355.752 220.152 349.068 220.08 344.496 209.712C339.432 198.192 341.616 181.008 342.564 177.012Z" fill="#1DBF73"/>
    </svg>