<svg width="28" height="28" viewBox="0 0 28 28" fill="none" xmlns="http://www.w3.org/2000/svg">
    <path d="M14.0001 0.666504C15.7682 0.666504 17.4639 1.36888 18.7141 2.61913C19.9644 3.86937 20.6667 5.56506 20.6667 7.33317C20.6667 9.10128 19.9644 10.797 18.7141 12.0472C17.4639 13.2975 15.7682 13.9998 14.0001 13.9998C12.232 13.9998 10.5363 13.2975 9.28604 12.0472C8.03579 10.797 7.33341 9.10128 7.33341 7.33317C7.33341 5.56506 8.03579 3.86937 9.28604 2.61913C10.5363 1.36888 12.232 0.666504 14.0001 0.666504M14.0001 3.99984C13.116 3.99984 12.2682 4.35103 11.6431 4.97615C11.0179 5.60127 10.6667 6.44912 10.6667 7.33317C10.6667 8.21723 11.0179 9.06507 11.6431 9.69019C12.2682 10.3153 13.116 10.6665 14.0001 10.6665C14.8841 10.6665 15.732 10.3153 16.3571 9.69019C16.9822 9.06507 17.3334 8.21723 17.3334 7.33317C17.3334 6.44912 16.9822 5.60127 16.3571 4.97615C15.732 4.35103 14.8841 3.99984 14.0001 3.99984M14.0001 15.6665C18.4501 15.6665 27.3334 17.8832 27.3334 22.3332V27.3332H0.666748V22.3332C0.666748 17.8832 9.55008 15.6665 14.0001 15.6665ZM14.0001 18.8332C9.05008 18.8332 3.83341 21.2665 3.83341 22.3332V24.1665H24.1667V22.3332C24.1667 21.2665 18.9501 18.8332 14.0001 18.8332V18.8332Z" fill="#3A3A3A"/>
    </svg>