<svg width="34" height="34" viewBox="0 0 34 34" fill="none" xmlns="http://www.w3.org/2000/svg">
    <path d="M18.5666 33.6668H15.4166C14.674 33.6668 13.9618 33.3718 13.4367 32.8467C12.9116 32.3216 12.6166 31.6094 12.6166 30.8668V29.0502C12.6076 28.9431 12.5683 28.8409 12.5034 28.7553C12.4385 28.6697 12.3506 28.6044 12.2499 28.5668C12.1479 28.5015 12.0294 28.4668 11.9083 28.4668C11.7871 28.4668 11.6686 28.5015 11.5666 28.5668L10.3333 29.9002C10.0745 30.1607 9.76685 30.3675 9.42789 30.5086C9.08893 30.6496 8.72541 30.7223 8.35825 30.7223C7.9911 30.7223 7.62757 30.6496 7.28861 30.5086C6.94965 30.3675 6.64196 30.1607 6.38325 29.9002L4.09992 27.6668C3.83562 27.4086 3.62571 27.1001 3.48258 26.7595C3.33946 26.4188 3.26601 26.053 3.26659 25.6835C3.26766 24.9277 3.56716 24.2029 4.09992 23.6668L5.33325 22.4335C5.39279 22.3417 5.42448 22.2346 5.42448 22.1252C5.42448 22.0157 5.39279 21.9086 5.33325 21.8168C5.23325 21.5668 5.06658 21.3835 4.83325 21.3835H3.13325C2.38912 21.3791 1.67696 21.0804 1.15233 20.5526C0.627705 20.0249 0.333239 19.311 0.333252 18.5668V15.4168C0.333252 14.6742 0.628251 13.962 1.15335 13.4369C1.67845 12.9118 2.39065 12.6168 3.13325 12.6168H4.94992C5.05695 12.6078 5.15921 12.5685 5.24479 12.5036C5.33036 12.4387 5.39572 12.3508 5.43325 12.2502C5.49859 12.1482 5.53332 12.0296 5.53332 11.9085C5.53332 11.7874 5.49859 11.6688 5.43325 11.5668L4.09992 10.3335C3.83939 10.0748 3.63263 9.7671 3.49153 9.42814C3.35043 9.08918 3.27779 8.72565 3.27779 8.3585C3.27779 7.99134 3.35043 7.62782 3.49153 7.28886C3.63263 6.9499 3.83939 6.6422 4.09992 6.3835L6.33325 4.10016C6.58891 3.83711 6.89462 3.62787 7.23237 3.48476C7.57013 3.34164 7.9331 3.26754 8.29992 3.26683C8.67699 3.26517 9.05069 3.33793 9.39961 3.48093C9.74852 3.62392 10.0658 3.83435 10.3333 4.10016L11.5666 5.3335C11.6584 5.39304 11.7655 5.42472 11.8749 5.42472C11.9843 5.42472 12.0914 5.39304 12.1833 5.3335C12.4333 5.2335 12.6166 5.06683 12.6166 4.8335V3.1335C12.621 2.38936 12.9197 1.67721 13.4474 1.15258C13.9752 0.627949 14.6891 0.333483 15.4333 0.333496H18.6666C19.4092 0.333496 20.1214 0.628495 20.6465 1.1536C21.1716 1.6787 21.4666 2.39089 21.4666 3.1335V4.95016C21.4756 5.05719 21.5149 5.15946 21.5798 5.24503C21.6447 5.3306 21.7326 5.39597 21.8333 5.4335C21.9352 5.49883 22.0538 5.53356 22.1749 5.53356C22.296 5.53356 22.4146 5.49883 22.5166 5.4335L23.6666 4.10016C23.9253 3.83964 24.233 3.63287 24.5719 3.49177C24.9109 3.35067 25.2744 3.27803 25.6416 3.27803C26.0087 3.27803 26.3723 3.35067 26.7112 3.49177C27.0502 3.63287 27.3579 3.83964 27.6166 4.10016L29.8999 6.3335C30.1635 6.59226 30.3729 6.90089 30.5159 7.2414C30.659 7.58191 30.7329 7.94748 30.7333 8.31683C30.7413 8.69232 30.6714 9.0654 30.528 9.41251C30.3845 9.75962 30.1707 10.0732 29.8999 10.3335L28.6666 11.5668C28.607 11.6586 28.5754 11.7657 28.5754 11.8752C28.5754 11.9846 28.607 12.0917 28.6666 12.1835C28.7666 12.4335 28.9332 12.6168 29.1666 12.6168H30.9833C31.7069 12.6511 32.3896 12.963 32.8893 13.4875C33.389 14.0121 33.6674 14.709 33.6666 15.4335V18.6668C33.6666 19.4094 33.3716 20.1216 32.8465 20.6467C32.3214 21.1718 31.6092 21.4668 30.8666 21.4668H29.0499C28.9429 21.4759 28.8406 21.5151 28.7551 21.58C28.6695 21.645 28.6041 21.7329 28.5666 21.8335C28.507 21.9253 28.4754 22.0324 28.4754 22.1418C28.4754 22.2513 28.507 22.3583 28.5666 22.4502L29.8499 23.7335C30.1104 23.9922 30.3172 24.2999 30.4583 24.6389C30.5994 24.9778 30.672 25.3413 30.672 25.7085C30.672 26.0757 30.5994 26.4392 30.4583 26.7781C30.3172 27.1171 30.1104 27.4248 29.8499 27.6835L27.6666 29.9002C27.4109 30.1632 27.1052 30.3725 26.7675 30.5156C26.4297 30.6587 26.0667 30.7328 25.6999 30.7335C24.9557 30.7237 24.2444 30.4249 23.7166 29.9002L22.4333 28.6668C22.3414 28.6073 22.2343 28.5756 22.1249 28.5756C22.0155 28.5756 21.9084 28.6073 21.8166 28.6668C21.5666 28.7668 21.3833 28.9335 21.3833 29.1668V30.9835C21.349 31.7072 21.0371 32.3898 20.5126 32.8895C19.988 33.3893 19.2911 33.6676 18.5666 33.6668V33.6668ZM15.9499 30.3335H18.0499V29.0502C18.057 28.2816 18.292 27.5324 18.7252 26.8975C19.1584 26.2626 19.7702 25.7705 20.4833 25.4835C21.1992 25.1705 21.9921 25.0779 22.7609 25.2174C23.5297 25.3569 24.2396 25.7223 24.7999 26.2668L25.6999 27.1668L27.1666 25.7002L26.2666 24.7835C25.7255 24.2316 25.3605 23.5314 25.2181 22.7718C25.0756 22.0121 25.1621 21.2272 25.4666 20.5168C25.7561 19.8069 26.2493 19.1986 26.8841 18.7685C27.5188 18.3385 28.2666 18.1059 29.0333 18.1002H30.3333V15.9502H29.0499C28.2813 15.9431 27.5322 15.708 26.8972 15.2749C26.2623 14.8417 25.7702 14.2299 25.4833 13.5168C25.1703 12.8009 25.0777 12.0079 25.2172 11.2391C25.3567 10.4703 25.722 9.7605 26.2666 9.20016L27.1666 8.30016L25.6999 6.8335L24.7833 7.7335C24.2228 8.24544 23.5277 8.58658 22.7799 8.71675C22.0321 8.84692 21.2626 8.76071 20.5621 8.46826C19.8617 8.17581 19.2593 7.6893 18.8261 7.06602C18.3928 6.44274 18.1466 5.70864 18.1166 4.95016V3.66683H15.9499V4.95016C15.9428 5.71874 15.7078 6.46793 15.2746 7.10285C14.8415 7.73777 14.2296 8.22987 13.5166 8.51683C12.8006 8.82978 12.0077 8.92241 11.2389 8.78289C10.4701 8.64338 9.76026 8.27805 9.19992 7.7335L8.29992 6.8335L6.83325 8.30016L7.73325 9.21683C8.24519 9.77729 8.58633 10.4724 8.71651 11.2202C8.84668 11.968 8.76047 12.7375 8.46802 13.4379C8.17557 14.1384 7.68906 14.7408 7.06578 15.174C6.4425 15.6073 5.7084 15.8534 4.94992 15.8835H3.66659V17.9835H4.94992C5.7185 17.9906 6.46768 18.2256 7.10261 18.6588C7.73753 19.092 8.22963 19.7038 8.51658 20.4168C8.82954 21.1328 8.92216 21.9257 8.78265 22.6945C8.64314 23.4633 8.27781 24.1732 7.73325 24.7335L6.83325 25.6335L8.29992 27.1002L9.21658 26.2002C9.77704 25.6882 10.4721 25.3471 11.2199 25.2169C11.9678 25.0867 12.7372 25.1729 13.4377 25.4654C14.1382 25.7578 14.7405 26.2444 15.1738 26.8676C15.607 27.4909 15.8532 28.225 15.8833 28.9835L15.9499 30.3335Z" fill="#3A3A3A"/>
    <path d="M17.0001 22.8332C15.8464 22.8332 14.7185 22.4911 13.7593 21.8501C12.8 21.2091 12.0523 20.2981 11.6108 19.2322C11.1693 18.1663 11.0538 16.9934 11.2788 15.8618C11.5039 14.7303 12.0595 13.6909 12.8753 12.8751C13.6911 12.0592 14.7305 11.5037 15.8621 11.2786C16.9936 11.0535 18.1665 11.169 19.2324 11.6105C20.2983 12.0521 21.2093 12.7997 21.8503 13.759C22.4913 14.7183 22.8334 15.8461 22.8334 16.9998C22.8334 18.5469 22.2188 20.0307 21.1249 21.1246C20.0309 22.2186 18.5472 22.8332 17.0001 22.8332V22.8332ZM17.0001 14.4998C16.5056 14.4998 16.0223 14.6465 15.6112 14.9212C15.2 15.1959 14.8796 15.5863 14.6904 16.0431C14.5012 16.4999 14.4517 17.0026 14.5481 17.4876C14.6446 17.9725 14.8827 18.418 15.2323 18.7676C15.5819 19.1172 16.0274 19.3553 16.5124 19.4518C16.9973 19.5483 17.5 19.4988 17.9568 19.3095C18.4136 19.1203 18.8041 18.7999 19.0788 18.3888C19.3535 17.9776 19.5001 17.4943 19.5001 16.9998C19.5001 16.3368 19.2367 15.7009 18.7679 15.2321C18.299 14.7632 17.6631 14.4998 17.0001 14.4998Z" fill="#3A3A3A"/>
    </svg>