<svg width="39" height="39" viewBox="0 0 39 39" fill="none" xmlns="http://www.w3.org/2000/svg">
<path d="M28.1574 35.241C27.3172 35.2507 26.4862 35.0659 25.7293 34.701C24.9724 34.3361 24.3102 33.801 23.7945 33.1376C23.2788 32.4742 22.9236 31.7005 22.7567 30.8769C22.5898 30.0534 22.6157 29.2024 22.8323 28.3906L12.9786 22.7586C12.1474 23.5201 11.1022 24.0078 9.98462 24.1557C8.86702 24.3035 7.73098 24.1043 6.73032 23.5851C5.72967 23.0659 4.91274 22.2517 4.39016 21.2528C3.86758 20.2539 3.66458 19.1186 3.80866 18.0005C3.95273 16.8824 4.43692 15.8356 5.19567 15.0018C5.95441 14.168 6.95105 13.5875 8.05064 13.3389C9.15023 13.0903 10.2997 13.1857 11.3433 13.612C12.3869 14.0383 13.2743 14.7751 13.8853 15.7225L22.8308 10.6083C22.715 10.171 22.6537 9.72107 22.6482 9.26875C22.6372 7.99097 23.0669 6.74844 23.8649 5.75038C24.6628 4.75232 25.7803 4.05969 27.0291 3.78912C28.278 3.51855 29.5819 3.68656 30.7214 4.26486C31.8609 4.84317 32.7663 5.79644 33.2852 6.96417C33.8041 8.13191 33.9048 9.44277 33.5703 10.676C33.2358 11.9093 32.4866 12.9897 31.4488 13.7352C30.411 14.4807 29.148 14.8459 27.8724 14.7692C26.5969 14.6925 25.3868 14.1786 24.4458 13.3141L14.7652 18.847C14.7542 19.2563 14.6975 19.6608 14.5936 20.0559L24.4473 25.6863C25.1068 25.0811 25.9041 24.6459 26.7699 24.4186C27.6357 24.1912 28.5438 24.1786 29.4156 24.3818C30.2874 24.5849 31.0965 24.9977 31.7726 25.5844C32.4487 26.171 32.9714 26.9138 33.2954 27.7482C33.6194 28.5827 33.7349 29.4836 33.6319 30.3728C33.5289 31.262 33.2104 32.1126 32.7042 32.8508C32.198 33.5891 31.5192 34.1926 30.7269 34.6091C29.9346 35.0257 29.0526 35.2425 28.1574 35.241V35.241ZM28.1574 27.3706C27.5312 27.3706 26.9307 27.6194 26.4879 28.0622C26.0451 28.505 25.7963 29.1055 25.7963 29.7317C25.7963 30.3579 26.0451 30.9585 26.4879 31.4013C26.9307 31.8441 27.5312 32.0928 28.1574 32.0928C28.7836 32.0928 29.3842 31.8441 29.827 31.4013C30.2698 30.9585 30.5185 30.3579 30.5185 29.7317C30.5185 29.1055 30.2698 28.505 29.827 28.0622C29.3842 27.6194 28.7836 27.3706 28.1574 27.3706ZM9.26854 16.3521C8.64233 16.3521 8.04178 16.6008 7.59898 17.0436C7.15619 17.4864 6.90743 18.087 6.90743 18.7132C6.90743 19.3394 7.15619 19.94 7.59898 20.3828C8.04178 20.8255 8.64233 21.0743 9.26854 21.0743C9.89475 21.0743 10.4953 20.8255 10.9381 20.3828C11.3809 19.94 11.6297 19.3394 11.6297 18.7132C11.6297 18.087 11.3809 17.4864 10.9381 17.0436C10.4953 16.6008 9.89475 16.3521 9.26854 16.3521ZM28.1574 6.90764C27.8474 6.90764 27.5403 6.96871 27.2539 7.08737C26.9674 7.20603 26.7071 7.37994 26.4879 7.59919C26.2686 7.81844 26.0947 8.07873 25.976 8.36519C25.8574 8.65166 25.7963 8.95869 25.7963 9.26875C25.7963 9.57882 25.8574 9.88585 25.976 10.1723C26.0947 10.4588 26.2686 10.7191 26.4879 10.9383C26.7071 11.1576 26.9674 11.3315 27.2539 11.4501C27.5403 11.5688 27.8474 11.6299 28.1574 11.6299C28.7836 11.6299 29.3842 11.3811 29.827 10.9383C30.2698 10.4955 30.5185 9.89496 30.5185 9.26875C30.5185 8.64255 30.2698 8.04199 29.827 7.59919C29.3842 7.1564 28.7836 6.90764 28.1574 6.90764V6.90764Z" fill="#7A7A7A"/>
</svg>
