<svg width="24" height="24" viewBox="0 0 24 24" fill="none" xmlns="http://www.w3.org/2000/svg">
<path d="M8.45599 14.4941C8.53655 14.4332 8.62858 14.3892 8.72656 14.3647C8.82454 14.3402 8.92646 14.3358 9.02619 14.3517C9.12592 14.3676 9.22143 14.4034 9.30697 14.4571C9.39251 14.5108 9.46633 14.5812 9.52399 14.6641C9.69378 14.8509 9.88588 15.0162 10.096 15.1561C10.6599 15.5304 11.3232 15.7269 12 15.7201C12.855 15.7201 13.487 15.4371 13.904 15.1581C14.1141 15.0181 14.3062 14.8529 14.476 14.6661L14.497 14.6401C14.617 14.4814 14.7952 14.3768 14.9923 14.3494C15.1894 14.322 15.3893 14.3741 15.548 14.4941C15.7067 14.6141 15.8113 14.7923 15.8387 14.9894C15.866 15.1865 15.814 15.3864 15.694 15.5451L15.667 15.5791C15.654 15.5951 15.637 15.6171 15.615 15.6421C15.571 15.6921 15.51 15.7611 15.431 15.8401C15.2184 16.0511 14.9857 16.2407 14.736 16.4061C13.9255 16.9441 12.9727 17.2275 12 17.2201C11.0272 17.2275 10.0745 16.9441 9.26399 16.4061C9.01434 16.2407 8.78155 16.0511 8.56899 15.8401C8.48568 15.7574 8.40689 15.6703 8.33299 15.5791C8.07399 15.2471 8.10999 14.7551 8.45599 14.4951V14.4941Z" fill="#3A3A3A"/>
<path fill-rule="evenodd" clip-rule="evenodd" d="M12 1C5.925 1 1 5.925 1 12C1 18.075 5.925 23 12 23C18.075 23 23 18.075 23 12C23 5.925 18.075 1 12 1ZM2.5 12C2.5 9.48044 3.50089 7.06408 5.28249 5.28249C7.06408 3.50089 9.48044 2.5 12 2.5C14.5196 2.5 16.9359 3.50089 18.7175 5.28249C20.4991 7.06408 21.5 9.48044 21.5 12C21.5 14.5196 20.4991 16.9359 18.7175 18.7175C16.9359 20.4991 14.5196 21.5 12 21.5C9.48044 21.5 7.06408 20.4991 5.28249 18.7175C3.50089 16.9359 2.5 14.5196 2.5 12Z" fill="#3A3A3A"/>
<path d="M9 10.75C9 11.0815 8.8683 11.3995 8.63388 11.6339C8.39946 11.8683 8.08152 12 7.75 12C7.41848 12 7.10054 11.8683 6.86612 11.6339C6.6317 11.3995 6.5 11.0815 6.5 10.75C6.5 10.4185 6.6317 10.1005 6.86612 9.86612C7.10054 9.6317 7.41848 9.5 7.75 9.5C8.08152 9.5 8.39946 9.6317 8.63388 9.86612C8.8683 10.1005 9 10.4185 9 10.75ZM16.25 12C16.5815 12 16.8995 11.8683 17.1339 11.6339C17.3683 11.3995 17.5 11.0815 17.5 10.75C17.5 10.4185 17.3683 10.1005 17.1339 9.86612C16.8995 9.6317 16.5815 9.5 16.25 9.5C15.9185 9.5 15.6005 9.6317 15.3661 9.86612C15.1317 10.1005 15 10.4185 15 10.75C15 11.0815 15.1317 11.3995 15.3661 11.6339C15.6005 11.8683 15.9185 12 16.25 12Z" fill="#3A3A3A"/>
</svg>
