<svg width="113" height="32" viewBox="0 0 113 32" fill="none" xmlns="http://www.w3.org/2000/svg">
<g clip-path="url(#clip0_314_1605)">
<path d="M7.45404 31.7131V29.6037C7.45404 28.7949 6.96172 28.2677 6.11785 28.2677C5.696 28.2677 5.23891 28.4083 4.92245 28.8654C4.67645 28.4786 4.3249 28.2677 3.79751 28.2677C3.4458 28.2677 3.09442 28.3731 2.81303 28.7598V28.338H2.07471V31.7131H2.81303V29.8497C2.81303 29.2521 3.1295 28.9708 3.62182 28.9708C4.11382 28.9708 4.36014 29.2872 4.36014 29.8497V31.7131H5.09846V29.8497C5.09846 29.2521 5.44984 28.9708 5.90693 28.9708C6.39925 28.9708 6.64525 29.2872 6.64525 29.8497V31.7131H7.45404ZM18.3881 28.338H17.1928V27.3184H16.4545V28.338H15.7865V29.0058H16.4543V30.5529C16.4543 31.3265 16.7708 31.7834 17.6147 31.7834C17.9311 31.7834 18.2825 31.678 18.5288 31.5374L18.3178 30.9045C18.1068 31.0451 17.8608 31.0803 17.685 31.0803C17.3334 31.0803 17.1928 30.8694 17.1928 30.5177V29.0058H18.3881V28.338ZM24.6463 28.2675C24.2245 28.2675 23.9432 28.4786 23.7674 28.7598V28.338H23.0291V31.7131H23.7674V29.8146C23.7674 29.2521 24.0134 28.9357 24.4705 28.9357C24.6111 28.9357 24.7869 28.9709 24.9276 29.006L25.1385 28.3029C24.9979 28.2677 24.7869 28.2677 24.6463 28.2677V28.2675ZM15.1888 28.6192C14.8371 28.373 14.3449 28.2677 13.8175 28.2677C12.9738 28.2677 12.4114 28.6895 12.4114 29.3575C12.4114 29.9202 12.8332 30.2365 13.5715 30.342L13.9231 30.3772C14.3098 30.4474 14.5208 30.5529 14.5208 30.7288C14.5208 30.9748 14.2395 31.1506 13.7472 31.1506C13.2551 31.1506 12.8683 30.9748 12.6221 30.7991L12.2706 31.3616C12.6574 31.6428 13.1847 31.7834 13.712 31.7834C14.6965 31.7834 15.2591 31.3265 15.2591 30.6936C15.2591 30.0959 14.802 29.7794 14.0988 29.674L13.7472 29.6388C13.4307 29.6035 13.1847 29.5334 13.1847 29.3225C13.1847 29.0763 13.4307 28.9357 13.8175 28.9357C14.2395 28.9357 14.6614 29.1114 14.8723 29.2169L15.1888 28.6192ZM34.8071 28.2677C34.3851 28.2677 34.1039 28.4786 33.928 28.7598V28.338H33.1897V31.7131H33.928V29.8146C33.928 29.2521 34.1742 28.9357 34.6311 28.9357C34.7719 28.9357 34.9477 28.9709 35.0884 29.006L35.2993 28.3029C35.1587 28.2677 34.9477 28.2677 34.8071 28.2677ZM25.3847 30.0255C25.3847 31.0451 26.0877 31.7834 27.1778 31.7834C27.6699 31.7834 28.0215 31.678 28.373 31.3968L28.0215 30.7991C27.7402 31.01 27.459 31.1154 27.1425 31.1154C26.5448 31.1154 26.123 30.6936 26.123 30.0255C26.123 29.3928 26.5448 28.9708 27.1425 28.9357C27.459 28.9357 27.7402 29.0411 28.0215 29.2521L28.373 28.6544C28.0215 28.373 27.6699 28.2677 27.1778 28.2677C26.0877 28.2677 25.3847 29.006 25.3847 30.0255ZM32.2054 30.0255V28.338H31.4671V28.7598C31.2209 28.4435 30.8694 28.2677 30.4123 28.2677C29.463 28.2677 28.7247 29.006 28.7247 30.0255C28.7247 31.0451 29.463 31.7834 30.4123 31.7834C30.9044 31.7834 31.2561 31.6077 31.4671 31.2913V31.7131H32.2054V30.0255ZM29.4981 30.0255C29.4981 29.4278 29.8849 28.9357 30.5177 28.9357C31.1154 28.9357 31.5374 29.3928 31.5374 30.0255C31.5374 30.6232 31.1154 31.1154 30.5177 31.1154C29.8849 31.0802 29.4981 30.6232 29.4981 30.0255ZM20.6735 28.2677C19.689 28.2677 18.9858 28.9708 18.9858 30.0255C18.9858 31.0803 19.6889 31.7834 20.7086 31.7834C21.2007 31.7834 21.693 31.6428 22.0798 31.3265L21.7281 30.7991C21.4469 31.01 21.0953 31.1506 20.7438 31.1506C20.2867 31.1506 19.8296 30.9397 19.7241 30.3419H22.2204V30.0608C22.2557 28.9708 21.6227 28.2677 20.6733 28.2677H20.6735ZM20.6735 28.9004C21.1304 28.9004 21.4471 29.1818 21.5172 29.7092H19.7593C19.8296 29.2521 20.1461 28.9004 20.6735 28.9004ZM38.9909 30.0255V27.002H38.2526V28.7598C38.0064 28.4435 37.6549 28.2677 37.1978 28.2677C36.2485 28.2677 35.5102 29.006 35.5102 30.0255C35.5102 31.0451 36.2485 31.7834 37.1978 31.7834C37.6901 31.7834 38.0416 31.6077 38.2526 31.2913V31.7131H38.9909V30.0255ZM36.2838 30.0255C36.2838 29.4278 36.6704 28.9357 37.3033 28.9357C37.901 28.9357 38.3229 29.3928 38.3229 30.0255C38.3229 30.6232 37.901 31.1154 37.3033 31.1154C36.6704 31.0802 36.2838 30.6232 36.2838 30.0255ZM11.6026 30.0255V28.338H10.8642V28.7598C10.6181 28.4435 10.2665 28.2677 9.80945 28.2677C8.86021 28.2677 8.12189 29.006 8.12189 30.0255C8.12189 31.0451 8.86021 31.7834 9.80945 31.7834C10.3018 31.7834 10.6533 31.6077 10.8642 31.2913V31.7131H11.6026V30.0255ZM8.86021 30.0255C8.86021 29.4278 9.24699 28.9357 9.87976 28.9357C10.4775 28.9357 10.8995 29.3928 10.8995 30.0255C10.8995 30.6232 10.4775 31.1154 9.87976 31.1154C9.24699 31.0802 8.86021 30.6232 8.86021 30.0255Z" fill="black"/>
<path d="M14.9419 2.70703H26.0167V22.6066H14.9419V2.70703Z" fill="#FF5F00"/>
<path d="M15.6455 12.657C15.6455 8.61384 17.544 5.02763 20.462 2.70712C18.3176 1.01955 15.6104 0 12.6571 0C5.6604 0 0 5.6604 0 12.657C0 19.6534 5.6604 25.314 12.657 25.314C15.6103 25.314 18.3174 24.2944 20.462 22.6067C17.544 20.3214 15.6455 16.7001 15.6455 12.657Z" fill="#EB001B"/>
<path d="M40.9591 12.657C40.9591 19.6534 35.2987 25.314 28.3021 25.314C25.3488 25.314 22.6417 24.2944 20.4971 22.6067C23.4504 20.2864 25.3138 16.7001 25.3138 12.657C25.3138 8.61384 23.4151 5.02763 20.4971 2.70712C22.6416 1.01955 25.3488 0 28.3021 0C35.2987 0 40.9593 5.69564 40.9593 12.657H40.9591Z" fill="#F79E1B"/>
</g>
<g clip-path="url(#clip1_314_1605)">
<path d="M83.0649 12.2856C83.0295 15.0747 85.5505 16.631 87.4495 17.5564C89.4005 18.5057 90.0559 19.1146 90.0481 19.9637C90.0336 21.263 88.4918 21.8365 87.0491 21.8588C84.5321 21.8978 83.0685 21.1792 81.9051 20.6358L80.9983 24.8786C82.1657 25.4165 84.3272 25.8857 86.5686 25.9062C91.8301 25.9062 95.2724 23.309 95.291 19.2822C95.3116 14.1715 88.222 13.8887 88.2705 11.6044C88.2872 10.9117 88.9481 10.1725 90.3964 9.9846C91.1133 9.88967 93.0922 9.81701 95.3358 10.8502L96.2164 6.7451C95.0098 6.30577 93.4591 5.88509 91.5284 5.88509C86.5761 5.88509 83.093 8.51767 83.0649 12.2856ZM104.678 6.23869C103.717 6.23869 102.908 6.79911 102.546 7.65912L95.0304 25.6047H100.288L101.334 22.7132H107.759L108.366 25.6047H113L108.956 6.23869H104.678ZM105.413 11.4702L106.931 18.7423H102.775L105.413 11.4702ZM76.6903 6.23893L72.546 25.6045H77.5561L81.6985 6.23845H76.6903M69.2786 6.23845L64.0638 19.42L61.9544 8.21227C61.7069 6.96113 60.7294 6.23869 59.6439 6.23869H51.1194L51 6.80105C52.75 7.1808 54.7384 7.79329 55.943 8.44865C56.6803 8.84898 56.8905 9.19895 57.1327 10.1503L61.128 25.6047H66.4225L74.5397 6.23869H69.2786" fill="url(#paint0_linear_314_1605)"/>
</g>
<defs>
<linearGradient id="paint0_linear_314_1605" x1="79.5039" y1="26.3079" x2="80.0834" y2="5.74585" gradientUnits="userSpaceOnUse">
<stop stop-color="#222357"/>
<stop offset="1" stop-color="#254AA5"/>
</linearGradient>
<clipPath id="clip0_314_1605">
<rect width="41" height="31.8711" fill="white"/>
</clipPath>
<clipPath id="clip1_314_1605">
<rect width="62" height="20.1016" fill="white" transform="translate(51 5.88477)"/>
</clipPath>
</defs>
</svg>
